<?xml version="1.0" encoding="UTF-8" standalone="no"?>
<svg xmlns:svg="http://www.w3.org/2000/svg" xmlns="http://www.w3.org/2000/svg" width="1200" height="850">
  <rect width="100%" height="100%" fill="#f8fafc" />
  <g transform="scale(10.536275188052695, -10.536275188052695)   translate(61.69163090358997,-45.28451283747657)" stroke-width="0.35"  fill="none">
    <g stroke="#cbd5e1" fill="none">
			<path d="M1.6517521236405344,4.523550411881146 L1.560312710616027,4.5804812151868655 L1.4807351190546774,4.63814375855138 L1.4454393709504005,4.667217568867771 L1.413160267449336,4.696435931335937 L1.3839121003454329,4.725785909325967 L1.3577078194648111,4.755254507934273 L1.3345590269321352,4.78482867973718 L1.3144759720336978,4.81449533056776 L1.297467546679476,4.844241325313356 L1.283541281466178,4.874053493731256 L1.2727033423430196,4.903918636279899 L1.2649585278817055,4.933823529963065 L1.2603102671518362,4.963754934184449 L1.258760618202654,4.993699596610008 " />
			<path d="M1.258760618202654,4.993699596610021 L1.2608688873292246,5.028626261504696 L1.2671924247664474,5.063531887882431 L1.2777274214518224,5.098395449899101 L1.2924675314972758,5.13319594704858 L1.311403876011684,5.1679124168126584 L1.334525048449187,5.202523947288085 L1.3618171214800654,5.2370096897831075 L1.393263655380041,5.271348871375952 L1.428845707932954,5.305520807427655 L1.4685418458408463,5.339504914041706 L1.5123281576345748,5.37328072046303 L1.560178268077192,5.406827881408797 L1.6120633540513971,5.440126189323664 L1.6679521619215087,5.4731555865520445 L1.7278110263594817,5.505896177420099 L1.791603890623647,5.538328240220137 L1.9308355663385504,5.602188835781937 L2.0853117677641686,5.66458352746921 L2.2546603482007495,5.72536200100455 L2.438473332084837,5.784377835721647 L2.6363078978381393,5.841488857305489 L2.847687444663495,5.8965574803027465 L3.0721027407179395,5.949451039577177 L3.3090131498968214,6.000042109911561 L3.557847934273526,6.048208812986208 L3.818007629057136,6.0938351109945055 L4.08886548675562,6.13681108618816 L4.369768987065438,6.177033205678681 L4.660041408850102,6.214404570857172 L4.9589834604206695,6.248835150831574 L5.265874964190679,6.2802419993189655 L5.579976591647025,6.308549454470425 L5.900531644457114,6.333689321147054 L6.226767877421418,6.355601035208036 L6.557899358879807,6.374231809414956 L6.893128364089756,6.38953676060089 L7.2316472970151215,6.4014790177978735 L7.572640635895729,6.4100298110623015 L7.915286897910727,6.415168540784239 L8.258760618202654,6.416882827313685 L8.602234338494581,6.415168540784239 L8.94488060050958,6.4100298110623015 L9.285873939390186,6.4014790177978735 L9.624392872315552,6.38953676060089 L9.959621877525501,6.374231809414956 L10.290753358983888,6.355601035208036 L10.616989591948194,6.333689321147054 L10.937544644758283,6.308549454470425 L11.25164627221463,6.2802419993189655 L11.558537775984638,6.248835150831574 L11.857479827555204,6.214404570857172 L12.147752249339867,6.177033205678681 L12.428655749649685,6.136811086188161 L12.699513607348171,6.093835110994506 L12.959673302131783,6.048208812986208 L13.208508086508486,6.000042109911561 L13.445418495687367,5.949451039577178 L13.669833791741812,5.8965574803027465 L13.88121333856717,5.841488857305488 L14.079047904320472,5.784377835721647 L14.262860888204557,5.72536200100455 L14.432209468641139,5.66458352746921 L14.586685670066757,5.602188835781938 L14.72591734578166,5.538328240220137 L14.789710210045826,5.505896177420099 L14.8495690744838,5.4731555865520445 L14.905457882353911,5.440126189323664 L14.957342968328117,5.406827881408797 L15.005193078770734,5.37328072046303 L15.048979390564462,5.339504914041706 L15.088675528472354,5.305520807427655 L15.124257581025267,5.271348871375953 L15.155704114925243,5.2370096897831075 L15.182996187956121,5.2025239472880855 L15.206117360393623,5.167912416812659 L15.225053704908031,5.133195947048581 L15.239793814953487,5.098395449899101 L15.25032881163886,5.063531887882431 L15.256652349076084,5.028626261504697 L15.258760618202654,4.9936995966100275 " />
			<path d="M15.258760618202654,4.993699596610021 L15.257079992451768,4.962515279827881 L15.25203892219994,4.931345937093113 L15.24363982806217,4.900206535262874 L15.231886743105278,4.869112026817327 L15.21678531091133,4.838077342679791 L15.198342782867707,4.807117385047217 L15.176568014685133,4.776247020234474 L15.15147146214536,4.745481071535861 L15.123065176080514,4.714834312107272 L15.091362796586557,4.684321457872444 L15.056379546473586,4.653957160456681 L15.018132223956167,4.623756000151451 L14.976639194587193,4.593732478913244 L14.931920382439134,4.5639010134000415 L14.832892840547037,4.504871448196841 L14.721239779146302,4.446780669911127 L14.597175626218787,4.389740240986385 L14.460938645056153,4.333859706686356 L14.312790476678888,4.27924638471505 L14.15301563735876,4.22600515911475 L13.981920972209709,4.174238278837826 L13.799835065896538,4.1240451613791995 L13.607107611593143,4.075522201846583 L13.404108739402151,4.028762587835157 L13.191228305525776,3.98385612046223 L12.968875143553007,3.940889041905586 L12.737476279300989,3.8999438697767053 L12.497476110718544,3.861099238646966 L12.24933555442676,3.824429749031167 L11.993531160535744,3.7900058241183876 L11.73055419743745,3.757893574525334 L11.46090970833236,3.7281546713319313 L11.185115541301787,3.700846227642956 L10.903701354788604,3.6760206889032028 L10.617207600396414,3.6537257321768184 L10.326184484960562,3.634004174584234 L10.031190913884394,3.6168938910725457 L9.732793417770072,3.602427741677265 L9.431565064405252,3.590633508415123 L9.128084358195286,3.581533841929141 L8.822934129154422,3.575146217988418 L8.516700413589723,3.571482903926185 L8.209971328627425,3.570550935080582 L7.903335942743052,3.572352101283398 L7.597383144464473,3.5768829434227296 L7.292700511420611,3.584134760086148 L6.989873181907651,3.594093624271631 L6.689482731139953,3.606740410134154 L6.392106054343859,3.6220508297165797 L6.098314258839295,3.6399954795943064 L5.808671567236956,3.6605398973440906 L5.523734233857521,3.683644627728598 L5.244049476453797,3.709265298469581 L4.970154425287445,3.7373527054641515 L4.702575091578641,3.7678529072805045 L4.441825357309611,3.8007073287516007 L4.188405988322226,3.8358528734678776 L3.9428036726049296,3.8732220449529247 L3.705490085615943,3.9127430762894306 L3.476920984437859,3.954340067946435 L3.257535332503175,3.997933133543209 L3.047754456571788,4.043438553269822 L2.847981237579469,4.090768934669736 L2.6585993369112346,4.139833380475675 L2.479972459585573,4.1905376631764275 L2.3124436557645716,4.242784405979318 L2.1563346619313615,4.29647326982085 L2.011945283000184,4.351501146066314 L1.8795528165456705,4.40776235452834 L1.7594115202571174,4.465148846424063 L1.6517521236405548,4.523550411881135 " />
			<path d="M-5.899114727287607,-5.804903199203441 L-5.7871376449577525,-5.867733270953475 L-5.668416020252074,-5.930049410897189 L-5.543006860776185,-5.991821696146161 L-5.4109703853480315,-6.053020464959454 L-5.272369995082096,-6.113616330986555 L-5.1272722429455015,-6.173580197378081 L-4.975746801800719,-6.232883270757467 L-4.817866430950126,-6.291497075046933 L-4.653706941198518,-6.349393465141094 L-4.483347158450391,-6.406544640421643 L-4.306868885859405,-6.462923158106616 L-4.12435686454824,-6.51850194642784 L-3.935898732917714,-6.573254317630209 L-3.741584984564682,-6.627153980786591 L-3.5415089248289213,-6.680175054422171 L-3.335766625989896,-6.732292078942177 L-3.12445688113489,-6.783480028857047 L-2.9076811567206455,-6.833714324799136 L-2.685543543851347,-6.882970845325201 L-2.458150708296248,-6.931225938499019 L-2.2256118392710693,-6.978456433248532 L-1.9880385970076357,-7.024639650492109 L-1.498247665911741,-7.113776061185689 L-0.9897185509353417,-7.198463985478202 L-0.46342787439826516,-7.27854078151759 L0.07961363057468951,-7.353852663052468 L0.6383630611511819,-7.424254994776247 L1.2117473476700473,-7.489612570097002 L1.7986653144550733,-7.549799870799653 L2.397989794605923,-7.60470130810176 L3.0085697947047123,-7.654211444639991 L3.6292327052811526,-7.698235196960956 L4.258786552790945,-7.736688018127515 L4.896022288782563,-7.769496060089855 L5.539716111856201,-7.7965963155095475 L6.188631817955413,-7.817936738764154 L6.841523174477961,-7.833476345900051 L7.497136313646345,-7.843185293341476 L8.154212140541444,-7.847044935204653 L8.811488751174938,-7.8450478591069315 L9.467703855956438,-7.837197900402147 L10.121597203901148,-7.823510134814883 L10.7719130029225,-7.8040108494877805 L11.417402331561401,-7.778737492497476 L12.056825537520666,-7.7477386009361595 L12.688954618398165,-7.711073707696828 L13.31257558004642,-7.66881322714129 L13.926490768029671,-7.621038319870467 L14.529521167700779,-7.567840736856711 L15.120508668480593,-7.509322643237477 L15.698318287991487,-7.445596422108757 L16.261840351773543,-7.376784458695072 L16.809992624397168,-7.303018905310543 L17.341722387879546,-7.224441427562404 L17.856008463413357,-7.141202932284393 L18.35186317252483,-7.0534632777225035 L18.828334233895042,-6.961390966529695 L19.05901343919216,-6.913785006173716 L19.284506592201563,-6.865162822159139 L19.504705415894783,-6.815547761827256 L19.719504175467982,-6.764963649277508 L19.928799729113567,-6.713434773927646 L20.132491577546688,-6.660985878850473 L20.33048191226285,-6.607642148892757 L20.52267566250348,-6.5534291985819895 L20.708980540906936,-6.498373059826832 L20.889307087822875,-6.442500169417153 L21.063568714268925,-6.385837356329637 L21.23168174350887,-6.328411828845081 L21.393565451232405,-6.270251161483555 L21.549142104317298,-6.211383281763709 L21.698336998155135,-6.151836456792557 L21.841078492522932,-6.09163927969222 L21.97729804598322,-6.0308206558701185 L22.106930248796182,-5.969409789139201 L22.229912854328056,-5.9074361676949 L22.346186808940615,-5.844929549955528 L22.455696280347503,-5.7819199502729015 L22.558388684423683,-5.7184376245200985 L22.654214710455243,-5.654513055563233 L22.743128344817322,-5.590176938624221 L22.825086893068935,-5.525460166541586 L22.900051000453875,-5.460393814936379 L22.967984670798067,-5.3950091272903204 L23.02885528379416,-5.3293374999433425 L23.082633610665106,-5.26341046701774 L23.129293828199195,-5.1972596852761495 L23.168813531149816,-5.130916918920634 L23.201173742993987,-5.0644140243402 L23.226358925044472,-4.997782934814032 L23.244356983911125,-4.9310556451778025 L23.255159277307897,-4.864264196460442 L23.258760618202654,-4.797440660498739 " />
			<path d="M-5.899114727287607,3.9862370579052917 L-5.7871376449577525,3.923406986155258 L-5.668416020252074,3.8610908462115443 L-5.543006860776185,3.7993185609625715 L-5.4109703853480315,3.738119792149279 L-5.272369995082096,3.677523926122178 L-5.1272722429455015,3.6175600597306516 L-4.975746801800719,3.558256986351265 L-4.817866430950126,3.4996431820618 L-4.653706941198518,3.441746791967639 L-4.483347158450391,3.38459561668709 L-4.306868885859405,3.3282170990021167 L-4.12435686454824,3.272638310680893 L-3.935898732917714,3.217885939478524 L-3.741584984564682,3.1639862763221416 L-3.5415089248289213,3.110965202686562 L-3.335766625989896,3.0588481781665555 L-3.12445688113489,3.0076602282516856 L-2.9076811567206455,2.9574259323095977 L-2.685543543851347,2.9081694117835317 L-2.458150708296248,2.8599143186097136 L-2.2256118392710693,2.8126838238602008 L-1.9880385970076357,2.7665006066166242 L-1.498247665911741,2.6773641959230434 L-0.9897185509353417,2.592676271630531 L-0.46342787439826516,2.5125994755911427 L0.07961363057468951,2.437287594056265 L0.6383630611511819,2.3668852623324863 L1.2117473476700473,2.3015276870117307 L1.7986653144550733,2.2413403863090795 L2.397989794605923,2.186438949006973 L3.0085697947047123,2.136928812468742 L3.6292327052811526,2.092905060147776 L4.258786552790945,2.0544522389812188 L4.896022288782563,2.021644197018878 L5.539716111856201,1.9945439415991855 L6.188631817955413,1.9732035183445786 L6.841523174477961,1.9576639112086816 L7.497136313646345,1.9479549637672577 L8.154212140541444,1.9440953219040802 L8.811488751174938,1.9460923980018014 L9.467703855956438,1.9539423567065861 L10.121597203901148,1.967630122293849 L10.7719130029225,1.9871294076209525 L11.417402331561401,2.012402764611257 L12.056825537520666,2.043401656172574 L12.688954618398165,2.080066549411905 L13.31257558004642,2.122327029967443 L13.926490768029671,2.1701019372382655 L14.529521167700779,2.2232995202520223 L15.120508668480593,2.2818176138712567 L15.698318287991487,2.345543834999976 L16.261840351773543,2.414355798413661 L16.809992624397168,2.4881213517981906 L17.341722387879546,2.5666988295463287 L17.856008463413357,2.6499373248243403 L18.35186317252483,2.7376769793862294 L18.828334233895042,2.829749290579038 L19.05901343919216,2.8773552509350173 L19.284506592201563,2.9259774349495946 L19.504705415894783,2.9755924952814765 L19.719504175467982,3.026176607831225 L19.928799729113567,3.077705483181087 L20.132491577546688,3.1301543782582595 L20.33048191226285,3.183498108215976 L20.52267566250348,3.237711058526743 L20.708980540906936,3.2927671972819 L20.889307087822875,3.3486400876915794 L21.063568714268925,3.4053029007790956 L21.23168174350887,3.462728428263653 L21.393565451232405,3.5208890956251775 L21.549142104317298,3.5797569753450236 L21.698336998155135,3.639303800316176 L21.841078492522932,3.6995009774165126 L21.97729804598322,3.7603196012386144 L22.106930248796182,3.821730467969532 L22.229912854328056,3.8837040894138326 L22.346186808940615,3.946210707153205 L22.455696280347503,4.009220306835831 L22.558388684423683,4.072702632588634 L22.654214710455243,4.1366272015455 L22.743128344817322,4.200963318484512 L22.825086893068935,4.265680090567147 L22.900051000453875,4.330746442172354 L22.967984670798067,4.3961311298184125 L23.02885528379416,4.46180275716539 L23.082633610665106,4.5277297900909925 L23.129293828199195,4.5938805718325835 L23.168813531149816,4.660223338188099 L23.201173742993987,4.726726232768533 L23.226358925044472,4.793357322294701 L23.244356983911125,4.86008461193093 L23.255159277307897,4.926876060648291 L23.258760618202654,4.993699596609994 " />
			<path d="M23.258760618202654,4.993699596610023 L23.255439941882976,5.057866730379106 L23.245479383176114,5.122005453710641 L23.228883352187587,5.186087368745997 L23.205659196923676,5.2500841027788026 L23.175817200038036,5.3139673208171585 L23.139370574278992,5.377708738129151 L23.09633545663948,5.441280132766106 L23.04673090121232,5.504653358058052 L22.990578870753843,5.567800355075853 L22.92790422695976,5.630693165054488 L22.858734719457484,5.693303941771988 L22.783100973519748,5.755604963878538 L22.701036476505102,5.817568647170297 L22.612577563031145,5.879167556802497 L22.517763398887098,5.940374419436397 L22.41663596369292,6.0011621353147495 " />
			<path d="M-9.202618974568669,-3.8859269350039565 L-5.899114727287604,-5.804903199203441 " />
			<path d="M-9.202618974568669,5.9052133221047765 L-5.899114727287604,3.986237057905292 " />
			<path d="M-9.202618974568669,-3.8859269350039565 L-9.202618974568669,5.905213322104777 " />
			<path d="M22.416635963692915,6.00116213531475 L19.113131716411857,7.920138399514235 " />
			<path d="M-9.20261897456867,5.9052133221047765 L19.113131716411857,7.920138399514236 " />
			<path d="M30.628203664077265,11.441895975289427 L26.003297717883775,14.128462745168704 " />
			<path d="M26.003297717883783,14.128462745168703 L35.44188128154396,11.862762360505895 " />
			<path d="M35.44188128154396,11.862762360505897 L35.44188128154396,10.286388779111405 " />
			<path d="M40.06678722773745,9.176195590626627 L30.628203664077276,11.441895975289434 " />
			<path d="M23.258760618202658,-1.5760023809070351 L42.7095906255623,-0.19189762641993546 " />
			<path d="M-32.79907788371911,-5.5650311661785175 L-9.202618974568672,-3.885926935003961 " />
			<path d="M-32.79907788371911,-5.5650311661785175 L-35.44188128154396,-4.029850154818931 " />
			<path d="M-35.44188128154396,-1.0141789556294383 L-40.06678722773744,-1.3432833849396515 " />
			<path d="M-40.066787227737436,-1.3432833849396517 L-42.709590625562285,0.1918976264199359 " />
			<path d="M40.066787227737436,9.176195590626618 L42.709590625562285,7.641014579267029 " />
			<path d="M42.709590625562285,-0.19189762641995992 L42.709590625562285,7.641014579267029 " />
			<path d="M32.79907788371911,13.397943371865484 L35.44188128154396,11.862762360505895 " />
			<path d="M23.832423498241937,15.550358737295152 L32.79907788371911,13.397943371865484 " />
			<path d="M42.709590625562285,7.641014579267029 L23.832423498241937,12.172415348592644 " />
			<path d="M-30.628203664077265,10.09861259034979 L-26.003297717883783,7.41204582047051 " />
			<path d="M-30.62820366407727,5.6436437733653175 L-30.62820366407727,10.098612590349788 " />
			<path d="M-26.003297717883783,7.412045820470516 L-35.44188128154396,3.8030620508680695 " />
			<path d="M-35.44188128154396,3.8030620508680584 L-35.44188128154396,-4.029850154818931 " />
			<path d="M-40.066787227737436,6.489628820747312 L-30.62820366407726,10.098612590349758 " />
			<path d="M-40.066787227737436,-1.3432833849396517 L-40.066787227737436,6.4896288207473365 " />
			<path d="M-35.44188128154396,3.8030620508680584 L-32.79907788371911,2.2678810395084708 " />
			<path d="M-13.921910756398756,9.48584857871336 L-32.79907788371911,2.2678810395084668 " />
			<path d="M-23.83242349824194,15.242777371311815 L-13.921910756398756,9.48584857871336 " />
			<path d="M-42.709590625562285,8.024809832106921 L-23.83242349824194,15.242777371311815 " />
			<path d="M-42.709590625562285,8.024809832106925 L-40.066787227737436,6.4896288207473365 " />
			<path d="M-32.79907788371911,2.2678810395084708 L-32.79907788371911,-5.5650311661785175 " />
			<path d="M14.393839934581768,12.479887681833693 L-4.483327192738583,11.136604296894054 " />
			<path d="M14.393839934581768,12.479887681833695 L9.438583563660174,15.358352078132924 " />
			<path d="M-4.483327192738582,14.367680581739936 L9.438583563660176,15.35835207813292 " />
			<path d="M-4.483327192738582,11.136604296894054 L-4.483327192738582,16.03217442544842 " />
			<path d="M-4.483327192738581,16.032174425448417 L-4.570873901903877,16.08474871450445 L-4.658405239124542,16.14075213945412 L-4.745905835155035,16.200174866900415 L-4.83336032614753,16.26300646306594 L-4.920753356349581,16.329235895624898 L-5.008069580800376,16.398851535640222 L-5.095293668025086,16.47184115960549 L-5.18241030272686,16.548191951591118 L-5.2694041884759635,16.627890505494722 L-5.356260050395617,16.71092282739501 L-5.442962637844041,16.7972743380089 L-5.529496727092252,16.88692987525147 L-5.615847123997133,16.979873696898167 L-5.701998666669299,17.076089483348913 L-5.787936228135316,17.175560340493647 L-5.873644718993774,17.278268802678618 L-5.959109090064773,17.384196835773142 L-6.0443143350323405,17.493325840336137 L-6.129245493079324,17.60563665488189 L-6.213887651514302,17.721109559244578 L-6.298225948390028,17.83972427804082 L-6.382245575112985,17.961459984229734 L-6.549269866086375,18.214208314372485 L-6.714843221318273,18.479177041559687 L-6.878849356701654,18.756180075150205 L-7.041173088806342,19.04502287266852 L-7.201700415773701,19.345502576434207 L-7.360318597381465,19.65740815603128 L-7.516916234222517,19.98052055651729 L-7.671383345942001,20.31461285226819 L-7.823611448477816,20.659450406350874 L-7.9734936302502355,21.014791035311415 L-8.12092462724717,21.380385179263378 L-8.265800896952308,21.755976077156614 L-8.408020691064252,22.141299947103587 L-8.547484126955522,22.536086171636462 L-8.684093257821317,22.94005748776491 L-8.817752141468686,23.352930181701215 L-8.948366907697865,23.774414288115715 L-9.075845824228413,24.2042137937829 L-9.200099361123861,24.642026845474934 L-9.321040253669654,25.087545961956756 L-9.438583563660156,25.540458249933675 " />
			<path d="M-9.438583563660176,25.540458249933707 L9.438583563660176,26.883741634873346 " />
			<path d="M9.438583563660174,15.35835207813292 L9.438583563660174,26.883741634873346 " />
			<path d="M14.393839934581766,17.375457810388063 L14.393839934581766,12.479887681833695 " />
			<path d="M9.438583563660181,26.883741634873353 L9.556126873650694,26.430829346896395 L9.677067766196487,25.985310230414576 L9.801321303091935,25.547497178722544 L9.928800219622481,25.117697673055357 L10.05941498585166,24.696213566640857 L10.193073869499031,24.28334087270455 L10.329683000364827,23.879369556576094 L10.469146436256096,23.48458333204323 L10.611366230368038,23.09925946209626 L10.756242500073178,22.723668564203017 L10.903673497070113,22.35807442025105 L11.053555678842534,22.00273379129051 L11.20578378137835,21.657896237207822 L11.360250893097833,21.323803941456923 L11.516848529938883,21.00069154097092 L11.675466711546648,20.688785961373846 L11.835994038514007,20.38830625760815 L11.998317770618694,20.099463460089844 L12.162323906002072,19.82246042649933 L12.327897261233973,19.557491699312127 L12.494921552207364,19.304743369169373 L12.578941178930318,19.183007662980458 L12.663279475806046,19.06439294418422 L12.747921634241024,18.94892003982153 L12.832852792288005,18.83660922527578 L12.918058037255573,18.727480220712785 L13.003522408326573,18.62155218761826 L13.089230899185031,18.51884372543329 L13.175168460651047,18.419372868288555 L13.261320003323213,18.323157081837802 L13.347670400228093,18.230213260191114 L13.434204489476304,18.14055772294854 L13.520907076924727,18.054206212334652 L13.607762938844381,17.97117389043437 L13.694756824593485,17.891475336530757 L13.78187345929526,17.81512454454513 L13.86909754651997,17.742134920579865 L13.956413770970766,17.672519280564536 L14.043806801172817,17.606289848005577 L14.131261292165313,17.543458251840054 L14.218761888195807,17.484035524393757 L14.30629322541647,17.428032099444092 L14.393839934581738,17.37545781038807 " />
			<path d="M23.83242349824194,18.04709950285788 L23.83242349824194,12.17241534859264 " />
			<path d="M14.393839934581768,17.37545781038806 L23.832423498241944,18.04709950285788 " />
			<path d="M-13.92191075639876,15.360532732978601 L-4.483327192738583,16.03217442544842 " />
			<path d="M-13.921910756398756,9.48584857871336 L-13.921910756398756,15.3605327329786 " />
			<path d="M-20.52891925096088,38.780765775595036 L-23.83242349824194,40.69974203979452 " />
			<path d="M-23.83242349824194,40.69974203979452 L-23.83242349824194,15.242777371311815 " />
			<path d="M-13.921910756398756,15.360532732978598 L-14.00298891409385,15.409104824077694 L-14.084054861716627,15.460618619814692 L-14.165096391033554,15.515066362401427 L-14.246101297488414,15.572439852208142 L-14.327057382040252,15.63273044899831 L-14.407952453000513,15.69592907322982 L-14.48877432786907,15.762026207422323 L-14.569510835168849,15.831011897590543 L-14.650149816278827,15.902875754743274 L-14.730679127265061,15.977606956447978 L-14.811086640709526,16.05519424846056 L-14.89136024753646,16.135625946420227 L-14.971487858835944,16.218889937609124 L-15.051457407684449,16.304973682776435 L-15.210874171166173,16.485548156772534 L-15.36951451128429,16.677240597097516 L-15.527282869029852,16.87993553539316 L-15.684084210643496,17.093510875807898 L-15.839824084860211,17.317837968542747 L-15.99440867980326,17.55278168734519 L-16.14774487949294,17.798200510904117 L-16.299740319936166,18.053946608097036 L-16.450303444763094,18.31986592703794 L-16.59934356037724,18.595798287872473 L-16.746770890585932,18.88157747926424 L-16.89249663067811,19.177031358514327 L-17.036433000916986,19.481981955253595 L-17.17849329941525,19.79624557864542 L-17.318591954361068,20.11963292803412 L-17.456644575563324,20.45194920697268 L-17.592568005285127,20.792994240560766 L-17.726280368334912,21.142562596022636 L-17.857701121385013,21.50044370645216 L-17.986751101487922,21.866421997650452 L-18.113352573761127,22.240277017979714 L-18.23742927821165,22.621783571155035 L-18.358906475672267,23.01071185189422 L-18.47771099282155,23.406827584343937 L-18.593771266260756,23.80989216319866 L-18.707017385620937,24.219662797427652 L-18.817381135674335,24.63589265652317 L-18.924796037424684,25.058331019181924 L-19.02919738815168,25.48672342433023 L-19.130522300385447,25.92081182440186 L-19.22870973978765,26.360334740776217 L-19.323700561916255,26.805027421283302 L-19.415437547851948,27.25462199968051 L-19.50386543866467,27.708847657005233 L-19.588930968699515,28.167430784706085 L-19.67058289766201,28.630095149454473 L-19.748772041483306,29.096562059537206 L-19.823451301946843,29.566550532729977 L-19.894575695058556,30.039777465550532 L-19.96210237814355,30.515957803789636 L-20.02599067565291,30.994804714217054 L-20.086202103665165,31.476029757359193 L-20.14270039306753,31.959343061244226 L-20.195451511403068,32.44445349601015 L-20.24442368337059,32.93106884927049 L-20.28958740996489,33.418896002132165 L-20.33091548624585,33.90764110575934 L-20.36838301772567,34.39700975837693 L-20.401967435364394,34.88670718260729 L-20.431648509164635,35.37643840303301 L-20.45740836035738,35.86590842387914 L-20.479231472171495,36.3548224067076 L-20.497104699180447,36.84288584801678 L-20.511017275220603,37.32980475663952 L-20.520960819876382,37.81528583083233 L-20.5269293435283,38.29903663494944 L-20.528919250960882,38.780765775594986 " />
			<path d="M-20.528919250960882,38.780765775595036 L17.22541500367982,41.467332545474314 " />
			<path d="M17.225415003679814,41.46733254547431 L17.227404911112398,40.985603404828716 L17.233373434764314,40.501852600711615 L17.243316979420094,40.016371526518796 L17.25722955546025,39.529452617896055 L17.2751027824692,39.041389176586875 L17.296925894283316,38.552475193758426 L17.32268574547606,38.06300517291229 L17.352366819276302,37.573273952486566 L17.385951236915027,37.083576528256216 L17.423418768394846,36.59420787563862 L17.464746844675805,36.10546277201145 L17.509910571270105,35.617635619149766 L17.55888274323763,35.131020265889426 L17.611633861573168,34.64590983112351 L17.66813215097553,34.16259652723847 L17.728343578987786,33.68137148409633 L17.792231876497148,33.20252457366892 L17.85975855958214,32.72634423542981 L17.930882952693853,32.253117302609255 L18.00556221315739,31.783128829416487 L18.083751356978688,31.316661919333754 L18.16540328594118,30.853997554585362 L18.250468815976028,30.39541442688451 L18.33889670678875,29.941188769559787 L18.43063369272444,29.491594191162584 L18.525624514853046,29.046901510655495 L18.623811954255245,28.60737859428114 L18.725136866489017,28.17329019420951 L18.829538217216008,27.744897789061206 L18.936953118966358,27.322459426402453 L19.04731686901976,26.906229567306944 L19.16056298837994,26.49645893307794 L19.276623261819147,26.093394354223207 L19.39542777896843,25.6972786217735 L19.516904976429046,25.30835034103431 L19.640981680879573,24.926843787858992 L19.76758315315277,24.552988767529733 L19.896633133255683,24.187010476331437 L20.028053886305784,23.829129365901913 L20.16176624935557,23.479561010440044 L20.29768967907737,23.138515976851966 L20.435742300279625,22.806199697913407 L20.57584095522544,22.4828123485247 L20.717901253723706,22.16854872513288 L20.861837623962586,21.863598128393605 L21.007563364054764,21.56814424914352 L21.154990694263457,21.28236505775175 L21.304030809877602,21.006432696917223 L21.454593934704526,20.740513377976313 L21.606589375147752,20.4847672807834 L21.759925574837432,20.239348457224473 L21.914510169780485,20.004404738422025 L22.070250043997202,19.78007764568717 L22.227051385610846,19.566502305272437 L22.38481974335641,19.36380736697679 L22.54346008347452,19.172114926651812 L22.702876846956247,18.991540452655713 L22.78284639580475,18.9054567074884 L22.862974007104235,18.822192716299508 L22.94324761393117,18.741761018339837 L23.023655127375633,18.66417372632726 L23.10418443836187,18.58944252462255 L23.184823419471847,18.51757866746982 L23.265559926771626,18.4485929773016 L23.34638180164018,18.382495843109098 L23.427276872600444,18.319297218877587 L23.50823295715228,18.259006622087423 L23.58923786360714,18.201633132280705 L23.670279392924066,18.14718538969397 L23.751345340546845,18.095671593956972 L23.832423498241912,18.04709950285789 " />
			<path d="M13.921910756398756,43.3863088096738 L17.225415003679817,41.467332545474314 " />
			<path d="M13.92191075639876,43.3863088096738 L-23.832423498241944,40.69974203979452 " />
			<path d="M-42.709590625562285,0.19189762641993635 L-42.709590625562285,8.024809832106925 " />
			<path d="M-5.899114727287607,-5.804903199203441 L-5.899114727287607,3.986237057905292 " />
			<path d="M23.258760618202658,-4.797440660498711 L23.258760618202658,4.993699596610022 " />

       </g>
    <g stroke="#93c5fd" fill="none" stroke-width="0.42">
			<path d="M1.6517521236405308,-5.267589845227604 L1.759411520257114,-5.325991410684687 L1.8795528165456652,-5.383377902580411 L2.0119452830001796,-5.439639111042437 L2.156334661931357,-5.494666987287902 L2.3124436557645653,-5.548355851129433 L2.479972459585569,-5.600602593932324 L2.65859933691123,-5.651306876633075 L2.8479812375794618,-5.700371322439015 L3.047754456571777,-5.747701703838928 L3.2575353325031644,-5.793207123565541 L3.47692098443785,-5.836800189162316 L3.7054900856159314,-5.87839718081932 L3.942803672604918,-5.917918212155826 L4.188405988322215,-5.955287383640873 L4.4418253573095985,-5.99043292835715 L4.702575091578629,-6.023287349828246 L4.970154425287433,-6.053787551644599 L5.2440494764537835,-6.081874958639171 L5.523734233857509,-6.1074956293801534 L5.808671567236942,-6.130600359764661 L6.098314258839281,-6.151144777514444 L6.392106054343845,-6.169089427392171 L6.689482731139939,-6.184399846974597 L6.989873181907637,-6.19704663283712 L7.292700511420603,-6.207005497022603 L7.597383144464464,-6.214257313686022 L7.903335942743038,-6.218788155825353 L8.209971328627416,-6.220589322028169 L8.516700413589714,-6.219657353182566 L8.822934129154408,-6.215994039120333 L9.128084358195279,-6.209606415179611 L9.431565064405243,-6.200506748693629 L9.732793417770065,-6.188712515431487 L10.031190913884393,-6.174246366036205 L10.326184484960553,-6.157136082524517 L10.617207600396407,-6.137414524931933 L10.903701354788597,-6.115119568205548 L11.185115541301773,-6.090294029465795 L11.460909708332354,-6.062985585776819 L11.730554197437442,-6.033246682583417 L11.993531160535737,-6.001134432990364 L12.24933555442676,-5.966710508077583 L12.497476110718537,-5.930041018461785 L12.737476279300981,-5.891196387332046 L12.968875143553003,-5.850251215203164 L13.191228305525769,-5.807284136646521 L13.404108739402144,-5.762377669273594 L13.60710761159314,-5.7156180552621665 L13.799835065896538,-5.66709509572955 L13.981920972209707,-5.616901978270924 L14.153015637358758,-5.565135097994001 L14.312790476678888,-5.5118938723937 L14.460938645056153,-5.457280550422393 L14.597175626218785,-5.401400016122365 L14.721239779146302,-5.344359587197623 L14.832892840547036,-5.286268808911909 L14.931920382439134,-5.227239243708708 L14.976639194587195,-5.197407778195504 L15.018132223956167,-5.167384256957298 L15.056379546473586,-5.137183096652069 L15.091362796586557,-5.106818799236305 L15.123065176080512,-5.076305945001478 L15.151471462145357,-5.045659185572888 L15.176568014685133,-5.014893236874274 L15.198342782867705,-4.984022872061532 L15.21678531091133,-4.9530629144289575 L15.231886743105276,-4.9220282302914224 L15.243639828062168,-4.890933721845877 L15.25203892219994,-4.859794320015636 L15.257079992451768,-4.828624977280868 L15.258760618202654,-4.79744066049874 " />
			<path d="M1.258760618202654,-4.797440660498731 L1.2603102671518354,-4.827385322924304 L1.2649585278817055,-4.857316727145688 L1.2727033423430187,-4.8872216208288535 L1.283541281466178,-4.917086763377496 L1.2974675466794752,-4.946898931795395 L1.314475972033697,-4.976644926540992 L1.3345590269321335,-5.00631157737157 L1.3577078194648102,-5.035885749174479 L1.3839121003454338,-5.065354347782787 L1.4131602674493369,-5.094704325772817 L1.4454393709504014,-5.123922688240983 L1.4807351190546774,-5.152996498557373 L1.5603127106160262,-5.210659041921887 L1.6517521236405228,-5.2675898452276 " />
			<path d="M1.6517521236405344,4.523550411881146 L1.560312710616027,4.5804812151868655 L1.4807351190546774,4.63814375855138 L1.4454393709504005,4.667217568867771 L1.413160267449336,4.696435931335937 L1.3839121003454329,4.725785909325967 L1.3577078194648111,4.755254507934273 L1.3345590269321352,4.78482867973718 L1.3144759720336978,4.81449533056776 L1.297467546679476,4.844241325313356 L1.283541281466178,4.874053493731256 L1.2727033423430196,4.903918636279899 L1.2649585278817055,4.933823529963065 L1.2603102671518362,4.963754934184449 L1.258760618202654,4.993699596610008 " />
			<path d="M1.258760618202654,4.993699596610021 L1.2608688873292246,5.028626261504696 L1.2671924247664474,5.063531887882431 L1.2777274214518224,5.098395449899101 L1.2924675314972758,5.13319594704858 L1.311403876011684,5.1679124168126584 L1.334525048449187,5.202523947288085 L1.3618171214800654,5.2370096897831075 L1.393263655380041,5.271348871375952 L1.428845707932954,5.305520807427655 L1.4685418458408463,5.339504914041706 L1.5123281576345748,5.37328072046303 L1.560178268077192,5.406827881408797 L1.6120633540513971,5.440126189323664 L1.6679521619215087,5.4731555865520445 L1.7278110263594817,5.505896177420099 L1.791603890623647,5.538328240220137 L1.9308355663385504,5.602188835781937 L2.0853117677641686,5.66458352746921 L2.2546603482007495,5.72536200100455 L2.438473332084837,5.784377835721647 L2.6363078978381393,5.841488857305489 L2.847687444663495,5.8965574803027465 L3.0721027407179395,5.949451039577177 L3.3090131498968214,6.000042109911561 L3.557847934273526,6.048208812986208 L3.818007629057136,6.0938351109945055 L4.08886548675562,6.13681108618816 L4.369768987065438,6.177033205678681 L4.660041408850102,6.214404570857172 L4.9589834604206695,6.248835150831574 L5.265874964190679,6.2802419993189655 L5.579976591647025,6.308549454470425 L5.900531644457114,6.333689321147054 L6.226767877421418,6.355601035208036 L6.557899358879807,6.374231809414956 L6.893128364089756,6.38953676060089 L7.2316472970151215,6.4014790177978735 L7.572640635895729,6.4100298110623015 L7.915286897910727,6.415168540784239 L8.258760618202654,6.416882827313685 L8.602234338494581,6.415168540784239 L8.94488060050958,6.4100298110623015 L9.285873939390186,6.4014790177978735 L9.624392872315552,6.38953676060089 L9.959621877525501,6.374231809414956 L10.290753358983888,6.355601035208036 L10.616989591948194,6.333689321147054 L10.937544644758283,6.308549454470425 L11.25164627221463,6.2802419993189655 L11.558537775984638,6.248835150831574 L11.857479827555204,6.214404570857172 L12.147752249339867,6.177033205678681 L12.428655749649685,6.136811086188161 L12.699513607348171,6.093835110994506 L12.959673302131783,6.048208812986208 L13.208508086508486,6.000042109911561 L13.445418495687367,5.949451039577178 L13.669833791741812,5.8965574803027465 L13.88121333856717,5.841488857305488 L14.079047904320472,5.784377835721647 L14.262860888204557,5.72536200100455 L14.432209468641139,5.66458352746921 L14.586685670066757,5.602188835781938 L14.72591734578166,5.538328240220137 L14.789710210045826,5.505896177420099 L14.8495690744838,5.4731555865520445 L14.905457882353911,5.440126189323664 L14.957342968328117,5.406827881408797 L15.005193078770734,5.37328072046303 L15.048979390564462,5.339504914041706 L15.088675528472354,5.305520807427655 L15.124257581025267,5.271348871375953 L15.155704114925243,5.2370096897831075 L15.182996187956121,5.2025239472880855 L15.206117360393623,5.167912416812659 L15.225053704908031,5.133195947048581 L15.239793814953487,5.098395449899101 L15.25032881163886,5.063531887882431 L15.256652349076084,5.028626261504697 L15.258760618202654,4.9936995966100275 " />
			<path d="M15.258760618202654,4.993699596610021 L15.257079992451768,4.962515279827881 L15.25203892219994,4.931345937093113 L15.24363982806217,4.900206535262874 L15.231886743105278,4.869112026817327 L15.21678531091133,4.838077342679791 L15.198342782867707,4.807117385047217 L15.176568014685133,4.776247020234474 L15.15147146214536,4.745481071535861 L15.123065176080514,4.714834312107272 L15.091362796586557,4.684321457872444 L15.056379546473586,4.653957160456681 L15.018132223956167,4.623756000151451 L14.976639194587193,4.593732478913244 L14.931920382439134,4.5639010134000415 L14.832892840547037,4.504871448196841 L14.721239779146302,4.446780669911127 L14.597175626218787,4.389740240986385 L14.460938645056153,4.333859706686356 L14.312790476678888,4.27924638471505 L14.15301563735876,4.22600515911475 L13.981920972209709,4.174238278837826 L13.799835065896538,4.1240451613791995 L13.607107611593143,4.075522201846583 L13.404108739402151,4.028762587835157 L13.191228305525776,3.98385612046223 L12.968875143553007,3.940889041905586 L12.737476279300989,3.8999438697767053 L12.497476110718544,3.861099238646966 L12.24933555442676,3.824429749031167 L11.993531160535744,3.7900058241183876 L11.73055419743745,3.757893574525334 L11.46090970833236,3.7281546713319313 L11.185115541301787,3.700846227642956 L10.903701354788604,3.6760206889032028 L10.617207600396414,3.6537257321768184 L10.326184484960562,3.634004174584234 L10.031190913884394,3.6168938910725457 L9.732793417770072,3.602427741677265 L9.431565064405252,3.590633508415123 L9.128084358195286,3.581533841929141 L8.822934129154422,3.575146217988418 L8.516700413589723,3.571482903926185 L8.209971328627425,3.570550935080582 L7.903335942743052,3.572352101283398 L7.597383144464473,3.5768829434227296 L7.292700511420611,3.584134760086148 L6.989873181907651,3.594093624271631 L6.689482731139953,3.606740410134154 L6.392106054343859,3.6220508297165797 L6.098314258839295,3.6399954795943064 L5.808671567236956,3.6605398973440906 L5.523734233857521,3.683644627728598 L5.244049476453797,3.709265298469581 L4.970154425287445,3.7373527054641515 L4.702575091578641,3.7678529072805045 L4.441825357309611,3.8007073287516007 L4.188405988322226,3.8358528734678776 L3.9428036726049296,3.8732220449529247 L3.705490085615943,3.9127430762894306 L3.476920984437859,3.954340067946435 L3.257535332503175,3.997933133543209 L3.047754456571788,4.043438553269822 L2.847981237579469,4.090768934669736 L2.6585993369112346,4.139833380475675 L2.479972459585573,4.1905376631764275 L2.3124436557645716,4.242784405979318 L2.1563346619313615,4.29647326982085 L2.011945283000184,4.351501146066314 L1.8795528165456705,4.40776235452834 L1.7594115202571174,4.465148846424063 L1.6517521236405548,4.523550411881135 " />
			<path d="M15.258760618202656,-4.797440660498722 L15.258760618202656,4.993699596610028 " />
			<path d="M1.2587606182026523,-4.7974406604987365 L1.2587606182026523,4.993699596610014 " />

       </g><g stroke="#fca5a5" fill="none" stroke-width="0.42">
			<path d="M-5.899114727287607,-5.804903199203441 L-5.7871376449577525,-5.867733270953475 L-5.668416020252074,-5.930049410897189 L-5.543006860776185,-5.991821696146161 L-5.4109703853480315,-6.053020464959454 L-5.272369995082096,-6.113616330986555 L-5.1272722429455015,-6.173580197378081 L-4.975746801800719,-6.232883270757467 L-4.817866430950126,-6.291497075046933 L-4.653706941198518,-6.349393465141094 L-4.483347158450391,-6.406544640421643 L-4.306868885859405,-6.462923158106616 L-4.12435686454824,-6.51850194642784 L-3.935898732917714,-6.573254317630209 L-3.741584984564682,-6.627153980786591 L-3.5415089248289213,-6.680175054422171 L-3.335766625989896,-6.732292078942177 L-3.12445688113489,-6.783480028857047 L-2.9076811567206455,-6.833714324799136 L-2.685543543851347,-6.882970845325201 L-2.458150708296248,-6.931225938499019 L-2.2256118392710693,-6.978456433248532 L-1.9880385970076357,-7.024639650492109 L-1.498247665911741,-7.113776061185689 L-0.9897185509353417,-7.198463985478202 L-0.46342787439826516,-7.27854078151759 L0.07961363057468951,-7.353852663052468 L0.6383630611511819,-7.424254994776247 L1.2117473476700473,-7.489612570097002 L1.7986653144550733,-7.549799870799653 L2.397989794605923,-7.60470130810176 L3.0085697947047123,-7.654211444639991 L3.6292327052811526,-7.698235196960956 L4.258786552790945,-7.736688018127515 L4.896022288782563,-7.769496060089855 L5.539716111856201,-7.7965963155095475 L6.188631817955413,-7.817936738764154 L6.841523174477961,-7.833476345900051 L7.497136313646345,-7.843185293341476 L8.154212140541444,-7.847044935204653 L8.811488751174938,-7.8450478591069315 L9.467703855956438,-7.837197900402147 L10.121597203901148,-7.823510134814883 L10.7719130029225,-7.8040108494877805 L11.417402331561401,-7.778737492497476 L12.056825537520666,-7.7477386009361595 L12.688954618398165,-7.711073707696828 L13.31257558004642,-7.66881322714129 L13.926490768029671,-7.621038319870467 L14.529521167700779,-7.567840736856711 L15.120508668480593,-7.509322643237477 L15.698318287991487,-7.445596422108757 L16.261840351773543,-7.376784458695072 L16.809992624397168,-7.303018905310543 L17.341722387879546,-7.224441427562404 L17.856008463413357,-7.141202932284393 L18.35186317252483,-7.0534632777225035 L18.828334233895042,-6.961390966529695 L19.05901343919216,-6.913785006173716 L19.284506592201563,-6.865162822159139 L19.504705415894783,-6.815547761827256 L19.719504175467982,-6.764963649277508 L19.928799729113567,-6.713434773927646 L20.132491577546688,-6.660985878850473 L20.33048191226285,-6.607642148892757 L20.52267566250348,-6.5534291985819895 L20.708980540906936,-6.498373059826832 L20.889307087822875,-6.442500169417153 L21.063568714268925,-6.385837356329637 L21.23168174350887,-6.328411828845081 L21.393565451232405,-6.270251161483555 L21.549142104317298,-6.211383281763709 L21.698336998155135,-6.151836456792557 L21.841078492522932,-6.09163927969222 L21.97729804598322,-6.0308206558701185 L22.106930248796182,-5.969409789139201 L22.229912854328056,-5.9074361676949 L22.346186808940615,-5.844929549955528 L22.455696280347503,-5.7819199502729015 L22.558388684423683,-5.7184376245200985 L22.654214710455243,-5.654513055563233 L22.743128344817322,-5.590176938624221 L22.825086893068935,-5.525460166541586 L22.900051000453875,-5.460393814936379 L22.967984670798067,-5.3950091272903204 L23.02885528379416,-5.3293374999433425 L23.082633610665106,-5.26341046701774 L23.129293828199195,-5.1972596852761495 L23.168813531149816,-5.130916918920634 L23.201173742993987,-5.0644140243402 L23.226358925044472,-4.997782934814032 L23.244356983911125,-4.9310556451778025 L23.255159277307897,-4.864264196460442 L23.258760618202654,-4.797440660498739 " />
			<path d="M-5.899114727287607,3.9862370579052917 L-5.7871376449577525,3.923406986155258 L-5.668416020252074,3.8610908462115443 L-5.543006860776185,3.7993185609625715 L-5.4109703853480315,3.738119792149279 L-5.272369995082096,3.677523926122178 L-5.1272722429455015,3.6175600597306516 L-4.975746801800719,3.558256986351265 L-4.817866430950126,3.4996431820618 L-4.653706941198518,3.441746791967639 L-4.483347158450391,3.38459561668709 L-4.306868885859405,3.3282170990021167 L-4.12435686454824,3.272638310680893 L-3.935898732917714,3.217885939478524 L-3.741584984564682,3.1639862763221416 L-3.5415089248289213,3.110965202686562 L-3.335766625989896,3.0588481781665555 L-3.12445688113489,3.0076602282516856 L-2.9076811567206455,2.9574259323095977 L-2.685543543851347,2.9081694117835317 L-2.458150708296248,2.8599143186097136 L-2.2256118392710693,2.8126838238602008 L-1.9880385970076357,2.7665006066166242 L-1.498247665911741,2.6773641959230434 L-0.9897185509353417,2.592676271630531 L-0.46342787439826516,2.5125994755911427 L0.07961363057468951,2.437287594056265 L0.6383630611511819,2.3668852623324863 L1.2117473476700473,2.3015276870117307 L1.7986653144550733,2.2413403863090795 L2.397989794605923,2.186438949006973 L3.0085697947047123,2.136928812468742 L3.6292327052811526,2.092905060147776 L4.258786552790945,2.0544522389812188 L4.896022288782563,2.021644197018878 L5.539716111856201,1.9945439415991855 L6.188631817955413,1.9732035183445786 L6.841523174477961,1.9576639112086816 L7.497136313646345,1.9479549637672577 L8.154212140541444,1.9440953219040802 L8.811488751174938,1.9460923980018014 L9.467703855956438,1.9539423567065861 L10.121597203901148,1.967630122293849 L10.7719130029225,1.9871294076209525 L11.417402331561401,2.012402764611257 L12.056825537520666,2.043401656172574 L12.688954618398165,2.080066549411905 L13.31257558004642,2.122327029967443 L13.926490768029671,2.1701019372382655 L14.529521167700779,2.2232995202520223 L15.120508668480593,2.2818176138712567 L15.698318287991487,2.345543834999976 L16.261840351773543,2.414355798413661 L16.809992624397168,2.4881213517981906 L17.341722387879546,2.5666988295463287 L17.856008463413357,2.6499373248243403 L18.35186317252483,2.7376769793862294 L18.828334233895042,2.829749290579038 L19.05901343919216,2.8773552509350173 L19.284506592201563,2.9259774349495946 L19.504705415894783,2.9755924952814765 L19.719504175467982,3.026176607831225 L19.928799729113567,3.077705483181087 L20.132491577546688,3.1301543782582595 L20.33048191226285,3.183498108215976 L20.52267566250348,3.237711058526743 L20.708980540906936,3.2927671972819 L20.889307087822875,3.3486400876915794 L21.063568714268925,3.4053029007790956 L21.23168174350887,3.462728428263653 L21.393565451232405,3.5208890956251775 L21.549142104317298,3.5797569753450236 L21.698336998155135,3.639303800316176 L21.841078492522932,3.6995009774165126 L21.97729804598322,3.7603196012386144 L22.106930248796182,3.821730467969532 L22.229912854328056,3.8837040894138326 L22.346186808940615,3.946210707153205 L22.455696280347503,4.009220306835831 L22.558388684423683,4.072702632588634 L22.654214710455243,4.1366272015455 L22.743128344817322,4.200963318484512 L22.825086893068935,4.265680090567147 L22.900051000453875,4.330746442172354 L22.967984670798067,4.3961311298184125 L23.02885528379416,4.46180275716539 L23.082633610665106,4.5277297900909925 L23.129293828199195,4.5938805718325835 L23.168813531149816,4.660223338188099 L23.201173742993987,4.726726232768533 L23.226358925044472,4.793357322294701 L23.244356983911125,4.86008461193093 L23.255159277307897,4.926876060648291 L23.258760618202654,4.993699596609994 " />
			<path d="M23.258760618202654,4.993699596610023 L23.255439941882976,5.057866730379106 L23.245479383176114,5.122005453710641 L23.228883352187587,5.186087368745997 L23.205659196923676,5.2500841027788026 L23.175817200038036,5.3139673208171585 L23.139370574278992,5.377708738129151 L23.09633545663948,5.441280132766106 L23.04673090121232,5.504653358058052 L22.990578870753843,5.567800355075853 L22.92790422695976,5.630693165054488 L22.858734719457484,5.693303941771988 L22.783100973519748,5.755604963878538 L22.701036476505102,5.817568647170297 L22.612577563031145,5.879167556802497 L22.517763398887098,5.940374419436397 L22.41663596369292,6.0011621353147495 " />
			<path d="M-9.202618974568669,-3.8859269350039565 L-5.899114727287604,-5.804903199203441 " />
			<path d="M-9.202618974568669,5.9052133221047765 L-5.899114727287604,3.986237057905292 " />
			<path d="M-9.202618974568669,-3.8859269350039565 L-9.202618974568669,5.905213322104777 " />
			<path d="M22.416635963692915,6.00116213531475 L19.113131716411857,7.920138399514235 " />
			<path d="M-9.20261897456867,5.9052133221047765 L19.113131716411857,7.920138399514236 " />
			<path d="M1.6517521236405344,4.523550411881146 L1.596991594211861,4.5566578365464165 L1.5462438653436514,4.590028518825904 L1.4995395055701968,4.623642357468416 L1.4569066478514348,4.657479104754455 L1.418370972626711,4.6915183786926935 L1.3839556923458378,4.725739675297323 L1.3536815374867865,4.760122380938885 L1.3275667440684211,4.79464578476115 L1.3056270426658036,4.829289091156573 L1.2878756489346772,4.864031432292777 L1.2743232556508612,4.89885188068256 L1.2649780262693113,4.9337294617898335 L1.2598455900067673,4.968643166663894 L1.258929038450919,5.0035719645944345 L1.2622289236981512,5.038494815779652 L1.2697432580209815,5.073390683999843 L1.281467515065395,5.108238549288833 L1.2973946325773449,5.143017420595616 L1.3175150166567935,5.177706348428583 L1.341816547536724,5.21228443747471 L1.370284586883626,5.246730859186114 L1.4029019866150838,5.28102486432639 L1.439649099229145,5.315145795469178 L1.4805037896392328,5.349073099441421 L1.5254414485074985,5.382786339703829 L1.574435007068569,5.416265208661088 L1.6274549534347527,5.449489539894393 L1.6844693503729022,5.482439320308948 L1.7454438545422084,5.515094702189101 L1.8103417371813428,5.547436015153873 L1.9517489298889537,5.611098710464945 L2.1083502661826907,5.673274037232965 L2.279768479726763,5.733812209649833 L2.4655906090302846,5.792567385955679 L2.6653689923076653,5.849398019784436 L2.878622345935071,5.904167201161438 L3.104836923904826,5.95674298633153 L3.343467755484544,6.006998715623146 L3.593939958099356,6.054813318582539 L3.8556501222743904,6.100071605643114 L4.1279677653010465,6.142664545627187 L4.410236850125064,6.182489528411633 L4.7017773657972555,6.219450612124669 L5.001886965679429,6.253458754278222 L5.309842659458965,6.284432026279081 L5.624902554895822,6.312295810802059 L5.946307645105906,6.33698298154966 L6.273283637075138,6.358434064965214 L6.605042816999149,6.3765973835098775 L6.940785947954833,6.39142918015836 L7.279704195332096,6.402893723813422 L7.620981075387269,6.410963395385224 L7.963794422223969,6.415618754328127 L8.307318368462768,6.41684858547468 L8.650725334828035,6.4146499260539285 L8.993188023858902,6.409028072828996 L9.3338814129413,6.39999656933672 L9.671984741859708,6.387577173260079 L10.00668349008041,6.37179980401203 L10.3371713390028,6.352702470657029 L10.662652114451502,6.330331180343855 L10.982341704729714,6.304739827470366 L11.295469949612954,6.275990063847173 L11.601282495732502,6.2441511501730265 L11.899042613878743,6.209299789179726 L12.188032973846354,6.171519940848523 L12.467557372545611,6.130902620143171 L12.7369424112166,6.087545677746908 L12.995539117705816,6.041553564331585 L13.242724509896934,5.993037078926854 L13.477903096529284,5.942113101995595 L13.700508311788454,5.88890431385865 L13.910003880212969,5.833538899147181 L14.105885108628854,5.776150237994665 L14.287680101999687,5.716876584712471 L14.454950900263071,5.655860734723117 L14.607294533414802,5.593249680553581 L14.744343992298894,5.529194257717437 L14.807028768470934,5.496673005715297 L14.865769112764774,5.463848781338896 L14.920529642193449,5.430741356673625 L14.971277371061657,5.397370674394138 L15.017981730835114,5.363756835751626 L15.060614588553875,5.3299200884655855 L15.099150263778599,5.295880814527347 L15.133565544059472,5.261659517922718 L15.163839698918524,5.227276812281156 L15.189954492336888,5.19275340845889 L15.211894193739504,5.158110102063469 L15.22964558747063,5.123367760927265 L15.243197980754447,5.088547312537481 L15.252543210135997,5.053669731430209 L15.25767564639854,5.01875602655615 L15.258592197954389,4.983827228625608 L15.255292312707157,4.948904377440389 L15.247777978384327,4.914008509220199 L15.236053721339914,4.879160643931211 L15.220126603827964,4.844381772624427 L15.200006219748513,4.809692844791459 L15.175704688868585,4.775114755745332 L15.147236649521684,4.74066833403393 L15.114619249790223,4.706374328893652 L15.077872137176161,4.672253397750863 L15.037017446766075,4.6383260937786215 L14.992079787897811,4.604612853516215 L14.943086229336739,4.571133984558955 L14.890066282970555,4.537909653325649 L14.833051886032406,4.504959872911095 L14.772077381863102,4.472304491030942 L14.707179499223965,4.4399631780661695 L14.565772306516358,4.376300482755099 L14.409170970222624,4.31412515598708 L14.237752756678553,4.253586983570212 L14.05193062737503,4.194831807264366 L13.85215224409765,4.138001173435608 L13.638898890470244,4.083231992058607 L13.412684312500492,4.030656206888514 L13.174053480920765,3.980400477596896 L12.923581278305953,3.9325858746375038 L12.661871114130918,3.8873275875769284 L12.389553471104252,3.8447346475928548 L12.107284386280234,3.8049096648084086 L11.815743870608047,3.7679485810953732 L11.51563427072588,3.733940438941821 L11.207678576946343,3.7029671669409616 L10.892618681509486,3.675103382417984 L10.571213591299403,3.6504162116703824 L10.244237599330171,3.628965128254829 L9.91247841940616,3.610801809710165 L9.576735288450475,3.5959700130616827 L9.23781704107322,3.5845054694066207 L8.896540161018052,3.5764357978348196 L8.553726814181353,3.571780438891915 L8.21020286794254,3.570550607745363 L7.866795901577274,3.572749267166114 L7.524333212546413,3.5783711203910458 L7.183639823464008,3.5874026238833228 L6.845536494545601,3.599822019959964 L6.510837746324897,3.6155993892080125 L6.180349897402509,3.6346967225630142 L5.854869121953807,3.657068012876188 L5.535179531675595,3.682659365749677 L5.222051286792356,3.7114091293728695 L4.9162387406728065,3.743248043047016 L4.618478622526565,3.778099404040317 L4.329488262558954,3.8158792523715195 L4.049963863859697,3.8564965730768708 L3.7805788251887096,3.8998535154731337 L3.5219821186994933,3.945845628888457 L3.2747967265083737,3.994362114293189 L3.0396181398760254,4.0452860912244475 L2.817012924616856,4.098494879361392 L2.6075173561923384,4.153860294072862 L2.411636127776453,4.211248955225377 L2.229841134405622,4.270522608507571 L2.0625703361422367,4.331538458496926 L1.9102267029905065,4.394149512666462 L1.7731772441064138,4.4582049355026045 L1.7104924679343743,4.4907261875047455 L1.6517521236405752,4.523550411881122 " />
			<path d="M23.258760618202658,-1.5760023809070351 L42.7095906255623,-0.19189762641993546 " />
			<path d="M42.709590625562285,-0.19189762641995992 L42.709590625562285,7.641014579267029 " />
			<path d="M42.709590625562285,7.641014579267029 L23.832423498241937,12.172415348592644 " />
			<path d="M23.83242349824194,18.04709950285788 L23.83242349824194,12.17241534859264 " />
			<path d="M14.393839934581768,17.37545781038806 L23.832423498241944,18.04709950285788 " />
			<path d="M14.393839934581766,17.375457810388063 L14.393839934581766,12.479887681833695 " />
			<path d="M14.393839934581768,12.479887681833693 L-4.483327192738583,11.136604296894054 " />
			<path d="M-4.483327192738582,11.136604296894054 L-4.483327192738582,16.03217442544842 " />
			<path d="M-13.92191075639876,15.360532732978601 L-4.483327192738583,16.03217442544842 " />
			<path d="M-13.921910756398756,9.48584857871336 L-13.921910756398756,15.3605327329786 " />
			<path d="M-13.921910756398756,9.48584857871336 L-32.79907788371911,2.2678810395084668 " />
			<path d="M-32.79907788371911,2.2678810395084708 L-32.79907788371911,-5.5650311661785175 " />
			<path d="M-32.79907788371911,-5.5650311661785175 L-9.202618974568672,-3.885926935003961 " />
			<path d="M-5.899114727287607,-5.804903199203441 L-5.899114727287607,3.986237057905292 " />
			<path d="M23.258760618202658,-4.797440660498711 L23.258760618202658,4.993699596610022 " />

       </g><g stroke="#86efac" fill="none" stroke-width="0.42">
			<path d="M30.628203664077265,11.441895975289427 L26.003297717883775,14.128462745168704 " />
			<path d="M30.628203664077265,0.671641692469811 L30.62820366407727,11.441895975289427 " />
			<path d="M26.003297717883775,3.3582084623491077 L30.628203664077265,0.6716416924698287 " />
			<path d="M26.00329771788378,3.3582084623490895 L26.003297717883783,14.128462745168706 " />
			<path d="M26.003297717883783,14.128462745168703 L35.44188128154396,11.862762360505895 " />
			<path d="M35.44188128154396,11.862762360505897 L35.44188128154396,10.286388779111405 " />
			<path d="M40.06678722773745,9.176195590626627 L30.628203664077276,11.441895975289434 " />
			<path d="M40.066787227737436,1.3432833849396277 L40.066787227737436,9.176195590626616 " />
			<path d="M30.62820366407727,0.6716416924698287 L40.06678722773744,1.3432833849396517 " />

       </g><g stroke="#fdba74" fill="none" stroke-width="0.42">
			<path d="M35.44188128154396,4.029850154818931 L26.003297717883783,3.3582084623491073 " />
			<path d="M26.003297717883775,3.3582084623491077 L30.628203664077265,0.6716416924698287 " />
			<path d="M30.62820366407727,0.6716416924698287 L40.06678722773744,1.3432833849396517 " />
			<path d="M40.066787227737436,1.3432833849396277 L42.709590625562285,-0.1918976264199599 " />
			<path d="M19.11313171641185,-1.8710018575944924 L42.7095906255623,-0.19189762641993546 " />
			<path d="M22.416635963692915,-3.789978121793982 L19.113131716411857,-1.8710018575944973 " />
			<path d="M-5.899114727287607,-5.804903199203441 L-5.773242560943668,-5.8752408228671555 L-5.63891804057501,-5.944929220014602 L-5.496222078249978,-6.013926412961157 L-5.345240628680536,-6.082190840377761 L-5.186064637446341,-6.149681382325909 L-5.018789986212543,-6.216357385026766 L-4.843517434974238,-6.282178685349481 L-4.660352561362432,-6.347105635003956 L-4.469405697048014,-6.411099124423496 L-4.270791861282083,-6.474120606322942 L-4.064630691612653,-6.536132118918126 L-3.851046371819468,-6.59709630879262 L-3.630167557110342,-6.656976453398042 L-3.402127296624071,-6.715736483174341 L-3.1670629532865906,-6.773341003276762 L-2.925116121068708,-6.8297553148963654 L-2.676432539695176,-6.884945436161299 L-2.421162006856534,-6.938878122606206 L-2.159458287976584,-6.991520887197443 L-1.8914790235898469,-7.042842019902062 L-1.6173856343847977,-7.09281060678874 L-1.337343223970091,-7.141396548649183 L-1.051520479422292,-7.188570579128761 L-0.7600895696751166,-7.2343042823554615 L-0.46322604181129634,-7.278570110056556 L-0.16110871531956938,-7.321341398152644 L0.14608042561947698,-7.362592382819095 L0.45815634175388453,-7.402298216005221 L0.7749310502210438,-7.4404349804018075 L1.096213737781543,-7.4769797038480075 L1.4218108757579424,-7.511910373168914 L1.7515263366091602,-7.545205947435466 L2.0851615120704485,-7.57684637063873 L2.422515432787544,-7.60681258377088 L3.107564554812284,-7.661651197071212 L3.805023359345218,-7.709589676313728 L4.51321160703605,-7.7505125335030165 L5.230423210366129,-7.784321181891691 L5.954930343762716,-7.810934173484496 L6.684987606082128,-7.830287395253659 L7.4188362254339735,-7.842334223592798 L8.154708296216688,-7.847045636637266 L8.890831038156971,-7.844410284180368 L9.625431067092757,-7.834434515017001 L10.356738667210985,-7.817142361648857 L11.082992054447978,-7.79257548238801 L11.802441620781586,-7.760793060998404 L12.513354149190182,-7.721871664116982 L13.21401698912425,-7.675905056797939 L13.90274218243157,-7.623003976624506 L14.577870529796265,-7.563295866932411 L14.909826235460006,-7.5309334952959635 L15.237775587895273,-7.496924569787714 L15.561521042674986,-7.461289576112712 L15.880867587642786,-7.4240499794586725 L16.195622860381135,-7.385228211566139 L16.5055972640832,-7.344847657216452 L16.810604081758854,-7.302932640145625 L17.110459588706092,-7.259508408392638 L17.404983163179843,-7.214601119090963 L17.693997395191786,-7.168237822712484 L17.9773281933755,-7.120446446773302 L18.254804889852572,-7.071255779011251 L18.526260343036576,-7.02069545004523 L18.791531038312883,-6.968795915526838 L19.05045718653377,-6.915588437795019 L19.302882820269424,-6.861105067044805 L19.54865588775688,-6.805378622021468 L19.787628344490326,-6.748442670251748 L20.01965624239759,-6.690331507824016 L20.244599816549055,-6.631080138729603 L20.46232356934683,-6.5707242537776995 L20.67269635214344,-6.5093002090965495 L20.875591444240886,-6.446845004233876 L21.070886629222414,-6.383396259869738 L21.258464268571156,-6.3189921951552375 L21.438211372531143,-6.2536716046907355 L21.610019668168135,-6.187473835157434 L21.773785664589155,-6.120438761616407 L21.929410715281563,-6.052606763489353 L22.076801077534032,-5.984018700235538 L22.215867968903606,-5.914715886739598 L22.346527620694978,-5.844740068424985 L22.468701328419584,-5.774133396108081 L22.582315499204263,-5.702938400608142 L22.68730169612084,-5.631197967128301 L22.783596679409982,-5.5589553094231405 L22.871142444574456,-5.486253943768335 L22.949886257318873,-5.413137662748076 L23.019780685314856,-5.339650508876055 L23.0807836267725,-5.265836748065903 L23.132858335800925,-5.191740842967059 L23.175973444542603,-5.11740742618213 L23.19416282162296,-5.080165638452875 L23.210102982068207,-5.042881273381881 L23.22379152534882,-5.005559945857389 L23.23522639002052,-4.968207276334047 L23.24440585403476,-4.930828889986489 L23.251328534998017,-4.893430415862208 L23.255993390380006,-4.856017486033847 L23.258399717670656,-4.818595734751026 L23.25854715448594,-4.781170797591838 L23.25643567862241,-4.743748310614155 L23.25206560806057,-4.706333909506869 L23.245437600916958,-4.668933228741167 L23.236552655345086,-4.631551900722002 L23.22541210938507,-4.594195554939868 L23.21201764076215,-4.556869817123038 L23.19637126663403,-4.519580308390334 L23.178475343287115,-4.482332644404604 L23.15833256578162,-4.445132434527039 L23.111318919918865,-4.370896777965419 L23.055358648308086,-4.296918055489134 L22.990485459324404,-4.223240829114358 L22.916738430151106,-4.149909479247297 L22.834161983240982,-4.076968177951071 L22.74280585955792,-4.004460862338131 L22.642725088614803,-3.932431208104177 L22.533979955325783,-3.860922603219559 L22.416635963692958,-3.7899781217940065 " />
			<path d="M-9.202618974568669,-3.8859269350039565 L-5.899114727287604,-5.804903199203441 " />
			<path d="M-32.79907788371911,-5.5650311661785175 L-9.202618974568672,-3.885926935003961 " />
			<path d="M-32.79907788371911,-5.5650311661785175 L-35.44188128154396,-4.029850154818931 " />
			<path d="M-35.44188128154396,-4.029850154818931 L-26.003297717883783,-3.358208462349108 " />
			<path d="M-26.003297717883783,-3.3582084623491073 L-30.628203664077265,-0.6716416924698279 " />
			<path d="M-30.62820366407727,-0.671641692469829 L-40.06678722773744,-1.3432833849396515 " />
			<path d="M-40.066787227737436,-1.3432833849396517 L-42.709590625562285,0.1918976264199359 " />
			<path d="M32.79907788371912,5.5650311661785175 L-42.709590625562285,0.1918976264199359 " />
			<path d="M32.79907788371911,5.565031166178494 L35.44188128154396,4.029850154818906 " />
			<path d="M1.6517521236405308,-5.267589845227604 L1.710492467934368,-5.300414069604004 L1.7731772441064084,-5.332935321606146 L1.9102267029904976,-5.396990744442287 L2.0625703361422287,-5.459601798611824 L2.229841134405614,-5.520617648601179 L2.4116361277764433,-5.5798913018833725 L2.6075173561923286,-5.637279963035889 L2.8170129246168454,-5.692645377747358 L3.0396181398760165,-5.745854165884303 L3.2747967265083666,-5.796778142815562 L3.5219821186994853,-5.845294628220294 L3.7805788251887016,-5.891286741635617 L4.049963863859689,-5.93464368403188 L4.32948826255895,-5.9752610047372325 L4.6184786225265615,-6.013040853068436 L4.916238740672803,-6.0478922140617355 L5.222051286792352,-6.079731127735882 L5.535179531675592,-6.108480891359076 L5.8548691219538025,-6.134072244232564 L6.180349897402506,-6.156443534545738 L6.5108377463249,-6.1755408679007395 L6.845536494545609,-6.191318237148788 L7.183639823464016,-6.20373763322543 L7.524333212546409,-6.212769136717705 L7.86679590157727,-6.2183909899426375 L8.210202867942536,-6.220589649363388 L8.553726814181337,-6.219359818216836 L8.896540161018036,-6.214704459273932 L9.237817041073209,-6.20663478770213 L9.576735288450472,-6.195170244047068 L9.912478419406156,-6.1803384473985865 L10.244237599330168,-6.162175128853922 L10.571213591299399,-6.140724045438368 L10.892618681509482,-6.116036874690767 L11.20767857694634,-6.088173090167789 L11.515634270725876,-6.0571998181669295 L11.815743870608049,-6.0231916760133775 L12.107284386280242,-5.98623059230034 L12.389553471104257,-5.946405609515894 L12.661871114130914,-5.903812669531822 L12.92358127830595,-5.8585543824712465 L13.174053480920762,-5.810739779511854 L13.41268431250048,-5.760484050220239 L13.638898890470234,-5.707908265050145 L13.85215224409764,-5.653139083673144 L14.051930627375022,-5.596308449844386 L14.237752756678542,-5.53755327353854 L14.409170970222617,-5.477015101121673 L14.565772306516354,-5.414839774353652 L14.707179499223965,-5.35117707904258 L14.772077381863099,-5.318835766077808 L14.833051886032404,-5.286180384197655 L14.890066282970555,-5.2532306037831 L14.943086229336739,-5.220006272549795 L14.992079787897808,-5.186527403592536 L15.037017446766075,-5.152814163330127 L15.077872137176161,-5.118886859357885 L15.114619249790223,-5.084765928215097 L15.147236649521682,-5.050471923074821 L15.175704688868583,-5.0160255013634165 L15.200006219748513,-4.98144741231729 L15.220126603827964,-4.946758484484323 L15.236053721339914,-4.9119796131775395 L15.247777978384326,-4.8771317478885505 L15.255292312707157,-4.842235879668359 L15.258592197954389,-4.807313028483141 L15.25767564639854,-4.772384230552601 L15.252543210135997,-4.73747052567854 L15.243197980754447,-4.702592944571267 L15.229645587470632,-4.667772496181485 L15.211894193739504,-4.63303015504528 L15.189954492336888,-4.598386848649858 L15.163839698918522,-4.563863444827591 L15.133565544059472,-4.529480739186029 L15.099150263778597,-4.495259442581401 L15.060614588553875,-4.461220168643162 L15.017981730835112,-4.427383421357122 L14.971277371061657,-4.393769582714611 L14.920529642193449,-4.360398900435123 L14.865769112764776,-4.327291475769853 L14.80702876847094,-4.294467251393454 L14.744343992298898,-4.261945999391312 L14.607294533414809,-4.197890576555171 L14.454950900263078,-4.135279522385636 L14.287680101999692,-4.074263672396279 L14.105885108628858,-4.014990019114085 L13.910003880212972,-3.9576013579615683 L13.700508311788456,-3.9022359432500995 L13.477903096529285,-3.8490271551131547 L13.242724509896938,-3.798103178181896 L12.99553911770582,-3.749586692777164 L12.736942411216603,-3.703594579361841 L12.467557372545615,-3.6602376369655776 L12.188032973846358,-3.6196203162602263 L11.899042613878747,-3.581840467929024 L11.601282495732505,-3.5469891069357233 L11.29546994961295,-3.515150193261576 L10.982341704729706,-3.4864004296383824 L10.662652114451493,-3.4608090767648942 L10.337171339002792,-3.4384377864517206 L10.006683490080404,-3.4193404530967193 L9.6719847418597,-3.4035630838486712 L9.333881412941292,-3.391143687772029 L8.9931880238589,-3.3821121842797535 L8.650725334828039,-3.3764903310548218 L8.307318368462772,-3.3742916716340705 L7.963794422223973,-3.3755215027806225 L7.620981075387273,-3.380176861723527 L7.2797041953321004,-3.3882465332953284 L6.940785947954836,-3.3997110769503904 L6.605042816999154,-3.4145428735988723 L6.273283637075141,-3.432706192143537 L5.946307645105909,-3.45415727555909 L5.624902554895826,-3.4788444463066917 L5.309842659458969,-3.5067082308296698 L5.001886965679432,-3.5376815028305293 L4.701777365797264,-3.5716896449840814 L4.410236850125077,-3.608650728697117 L4.12796776530106,-3.648475711481563 L3.855650122274394,-3.6910686514656366 L3.5939399580993587,-3.7363269385262123 L3.3434677554845464,-3.7841415414856048 L3.104836923904821,-3.8343972707772225 L2.8786223459350664,-3.8869730559473155 L2.665368992307661,-3.9417422373243167 L2.4655906090302793,-3.998572871153075 L2.2797684797267594,-4.05732804745892 L2.1083502661826863,-4.117866219875788 L1.9517489298889519,-4.180041546643808 L1.8103417371813446,-4.2437042419548785 L1.7454438545422075,-4.276045554919651 L1.6844693503729031,-4.308700936799804 L1.6274549534347553,-4.341650717214358 L1.57443500706857,-4.374875048447664 L1.5254414485074976,-4.4083539174049235 L1.4805037896392337,-4.4420671576673305 L1.4396490992291477,-4.475994461639573 L1.4029019866150847,-4.510115392782361 L1.370284586883625,-4.544409397922639 L1.341816547536725,-4.578855819634041 L1.3175150166567953,-4.613433908680168 L1.2973946325773449,-4.648122836513136 L1.281467515065395,-4.68290170781992 L1.2697432580209824,-4.717749573108908 L1.2622289236981512,-4.752645441329099 L1.258929038450919,-4.787568292514318 L1.2598455900067673,-4.822497090444859 L1.2649780262693113,-4.857410795318919 L1.2743232556508604,-4.89228837642619 L1.2878756489346772,-4.927108824815974 L1.3056270426658028,-4.9618511659521785 L1.3275667440684202,-4.9964944723476 L1.353681537486783,-5.031017876169865 L1.3839556923458343,-5.065400581811427 L1.4183709726267084,-5.099621878416057 L1.4569066478514312,-5.1336611523542945 L1.499539505570194,-5.167497899640335 L1.5462438653436505,-5.201111738282847 L1.5969915942118575,-5.234482420562335 L1.6517521236404917,-5.267589845227582 " />

       </g><g stroke="#c4b5fd" fill="none" stroke-width="0.42">
			<path d="M40.066787227737436,1.3432833849396277 L40.066787227737436,9.176195590626616 " />
			<path d="M40.066787227737436,9.176195590626618 L42.709590625562285,7.641014579267029 " />
			<path d="M42.709590625562285,-0.19189762641995992 L42.709590625562285,7.641014579267029 " />
			<path d="M40.066787227737436,1.3432833849396277 L42.709590625562285,-0.1918976264199599 " />

       </g><g stroke="#f9a8d4" fill="none" stroke-width="0.42">
			<path d="M40.06678722773745,9.176195590626627 L30.628203664077276,11.441895975289434 " />
			<path d="M30.628203664077265,11.441895975289427 L26.003297717883775,14.128462745168704 " />
			<path d="M26.003297717883783,14.128462745168703 L35.44188128154396,11.862762360505895 " />
			<path d="M32.79907788371911,13.397943371865484 L35.44188128154396,11.862762360505895 " />
			<path d="M23.832423498241937,15.550358737295152 L32.79907788371911,13.397943371865484 " />
			<path d="M13.921910756398756,17.92934414119109 L23.83242349824194,12.172415348592638 " />
			<path d="M42.709590625562285,7.641014579267029 L23.832423498241937,12.172415348592644 " />
			<path d="M40.066787227737436,9.176195590626618 L42.709590625562285,7.641014579267029 " />
			<path d="M13.921910756398756,43.3863088096738 L17.225415003679817,41.467332545474314 " />
			<path d="M17.225415003679814,41.46733254547431 L17.227404911112398,40.985603404828716 L17.233373434764314,40.501852600711615 L17.243316979420094,40.016371526518796 L17.25722955546025,39.529452617896055 L17.2751027824692,39.041389176586875 L17.296925894283316,38.552475193758426 L17.32268574547606,38.06300517291229 L17.352366819276302,37.573273952486566 L17.385951236915027,37.083576528256216 L17.423418768394846,36.59420787563862 L17.464746844675805,36.10546277201145 L17.509910571270105,35.617635619149766 L17.55888274323763,35.131020265889426 L17.611633861573168,34.64590983112351 L17.66813215097553,34.16259652723847 L17.728343578987786,33.68137148409633 L17.792231876497148,33.20252457366892 L17.85975855958214,32.72634423542981 L17.930882952693853,32.253117302609255 L18.00556221315739,31.783128829416487 L18.083751356978688,31.316661919333754 L18.16540328594118,30.853997554585362 L18.250468815976028,30.39541442688451 L18.33889670678875,29.941188769559787 L18.43063369272444,29.491594191162584 L18.525624514853046,29.046901510655495 L18.623811954255245,28.60737859428114 L18.725136866489017,28.17329019420951 L18.829538217216008,27.744897789061206 L18.936953118966358,27.322459426402453 L19.04731686901976,26.906229567306944 L19.16056298837994,26.49645893307794 L19.276623261819147,26.093394354223207 L19.39542777896843,25.6972786217735 L19.516904976429046,25.30835034103431 L19.640981680879573,24.926843787858992 L19.76758315315277,24.552988767529733 L19.896633133255683,24.187010476331437 L20.028053886305784,23.829129365901913 L20.16176624935557,23.479561010440044 L20.29768967907737,23.138515976851966 L20.435742300279625,22.806199697913407 L20.57584095522544,22.4828123485247 L20.717901253723706,22.16854872513288 L20.861837623962586,21.863598128393605 L21.007563364054764,21.56814424914352 L21.154990694263457,21.28236505775175 L21.304030809877602,21.006432696917223 L21.454593934704526,20.740513377976313 L21.606589375147752,20.4847672807834 L21.759925574837432,20.239348457224473 L21.914510169780485,20.004404738422025 L22.070250043997202,19.78007764568717 L22.227051385610846,19.566502305272437 L22.38481974335641,19.36380736697679 L22.54346008347452,19.172114926651812 L22.702876846956247,18.991540452655713 L22.78284639580475,18.9054567074884 L22.862974007104235,18.822192716299508 L22.94324761393117,18.741761018339837 L23.023655127375633,18.66417372632726 L23.10418443836187,18.58944252462255 L23.184823419471847,18.51757866746982 L23.265559926771626,18.4485929773016 L23.34638180164018,18.382495843109098 L23.427276872600444,18.319297218877587 L23.50823295715228,18.259006622087423 L23.58923786360714,18.201633132280705 L23.670279392924066,18.14718538969397 L23.751345340546845,18.095671593956972 L23.832423498241912,18.04709950285789 " />
			<path d="M23.83242349824194,18.04709950285788 L23.83242349824194,12.17241534859264 " />
			<path d="M13.921910756398756,17.92934414119109 L13.921910756398756,43.3863088096738 " />

       </g><g stroke="#67e8f9" fill="none" stroke-width="0.42">
			<path d="M-30.628203664077265,10.09861259034979 L-26.003297717883783,7.41204582047051 " />
			<path d="M-30.62820366407727,5.6436437733653175 L-30.62820366407727,10.098612590349788 " />
			<path d="M-26.00329771788378,-3.3582084623491073 L-26.003297717883783,7.412045820470508 " />
			<path d="M-26.003297717883783,7.412045820470516 L-35.44188128154396,3.8030620508680695 " />
			<path d="M-35.44188128154396,-4.029850154818931 L-26.003297717883783,-3.358208462349108 " />
			<path d="M-35.44188128154396,3.8030620508680584 L-35.44188128154396,-4.029850154818931 " />
			<path d="M-40.066787227737436,6.489628820747312 L-30.62820366407726,10.098612590349758 " />
			<path d="M-40.066787227737436,-1.3432833849396517 L-40.066787227737436,6.4896288207473365 " />
			<path d="M-35.44188128154396,-1.0141789556294383 L-40.06678722773744,-1.3432833849396515 " />

       </g><g stroke="#fde68a" fill="none" stroke-width="0.42">
			<path d="M-40.066787227737436,6.489628820747312 L-30.62820366407726,10.098612590349758 " />
			<path d="M-30.628203664077265,10.09861259034979 L-26.003297717883783,7.41204582047051 " />
			<path d="M-26.003297717883783,7.412045820470516 L-35.44188128154396,3.8030620508680695 " />
			<path d="M-35.44188128154396,3.8030620508680584 L-32.79907788371911,2.2678810395084708 " />
			<path d="M-13.921910756398756,9.48584857871336 L-32.79907788371911,2.2678810395084668 " />
			<path d="M-23.83242349824194,15.242777371311815 L-13.921910756398756,9.48584857871336 " />
			<path d="M-42.709590625562285,8.024809832106921 L-23.83242349824194,15.242777371311815 " />
			<path d="M-42.709590625562285,8.024809832106925 L-40.066787227737436,6.4896288207473365 " />
			<path d="M-20.52891925096088,38.780765775595036 L-23.83242349824194,40.69974203979452 " />
			<path d="M-23.83242349824194,40.69974203979452 L-23.83242349824194,15.242777371311815 " />
			<path d="M-13.921910756398756,9.48584857871336 L-13.921910756398756,15.3605327329786 " />
			<path d="M-13.921910756398756,15.360532732978598 L-14.00298891409385,15.409104824077694 L-14.084054861716627,15.460618619814692 L-14.165096391033554,15.515066362401427 L-14.246101297488414,15.572439852208142 L-14.327057382040252,15.63273044899831 L-14.407952453000513,15.69592907322982 L-14.48877432786907,15.762026207422323 L-14.569510835168849,15.831011897590543 L-14.650149816278827,15.902875754743274 L-14.730679127265061,15.977606956447978 L-14.811086640709526,16.05519424846056 L-14.89136024753646,16.135625946420227 L-14.971487858835944,16.218889937609124 L-15.051457407684449,16.304973682776435 L-15.210874171166173,16.485548156772534 L-15.36951451128429,16.677240597097516 L-15.527282869029852,16.87993553539316 L-15.684084210643496,17.093510875807898 L-15.839824084860211,17.317837968542747 L-15.99440867980326,17.55278168734519 L-16.14774487949294,17.798200510904117 L-16.299740319936166,18.053946608097036 L-16.450303444763094,18.31986592703794 L-16.59934356037724,18.595798287872473 L-16.746770890585932,18.88157747926424 L-16.89249663067811,19.177031358514327 L-17.036433000916986,19.481981955253595 L-17.17849329941525,19.79624557864542 L-17.318591954361068,20.11963292803412 L-17.456644575563324,20.45194920697268 L-17.592568005285127,20.792994240560766 L-17.726280368334912,21.142562596022636 L-17.857701121385013,21.50044370645216 L-17.986751101487922,21.866421997650452 L-18.113352573761127,22.240277017979714 L-18.23742927821165,22.621783571155035 L-18.358906475672267,23.01071185189422 L-18.47771099282155,23.406827584343937 L-18.593771266260756,23.80989216319866 L-18.707017385620937,24.219662797427652 L-18.817381135674335,24.63589265652317 L-18.924796037424684,25.058331019181924 L-19.02919738815168,25.48672342433023 L-19.130522300385447,25.92081182440186 L-19.22870973978765,26.360334740776217 L-19.323700561916255,26.805027421283302 L-19.415437547851948,27.25462199968051 L-19.50386543866467,27.708847657005233 L-19.588930968699515,28.167430784706085 L-19.67058289766201,28.630095149454473 L-19.748772041483306,29.096562059537206 L-19.823451301946843,29.566550532729977 L-19.894575695058556,30.039777465550532 L-19.96210237814355,30.515957803789636 L-20.02599067565291,30.994804714217054 L-20.086202103665165,31.476029757359193 L-20.14270039306753,31.959343061244226 L-20.195451511403068,32.44445349601015 L-20.24442368337059,32.93106884927049 L-20.28958740996489,33.418896002132165 L-20.33091548624585,33.90764110575934 L-20.36838301772567,34.39700975837693 L-20.401967435364394,34.88670718260729 L-20.431648509164635,35.37643840303301 L-20.45740836035738,35.86590842387914 L-20.479231472171495,36.3548224067076 L-20.497104699180447,36.84288584801678 L-20.511017275220603,37.32980475663952 L-20.520960819876382,37.81528583083233 L-20.5269293435283,38.29903663494944 L-20.528919250960882,38.780765775594986 " />

       </g><g stroke="#d8b4fe" fill="none" stroke-width="0.42">
			<path d="M-35.44188128154396,3.8030620508680584 L-35.44188128154396,-4.029850154818931 " />
			<path d="M-32.79907788371911,-5.5650311661785175 L-35.44188128154396,-4.029850154818931 " />
			<path d="M-32.79907788371911,2.2678810395084708 L-32.79907788371911,-5.5650311661785175 " />
			<path d="M-35.44188128154396,3.8030620508680584 L-32.79907788371911,2.2678810395084708 " />

       </g><g stroke="#a7f3d0" fill="none" stroke-width="0.42">
			<path d="M14.393839934581768,12.479887681833693 L-4.483327192738583,11.136604296894054 " />
			<path d="M14.393839934581768,12.479887681833695 L9.438583563660174,15.358352078132924 " />
			<path d="M-4.483327192738582,14.367680581739936 L9.438583563660176,15.35835207813292 " />
			<path d="M-9.438583563660176,14.015068693193285 L-4.483327192738582,11.136604296894056 " />
			<path d="M-4.483327192738582,11.136604296894054 L-4.483327192738582,16.03217442544842 " />
			<path d="M-9.438583563660174,25.540458249933707 L-9.438583563660174,14.015068693193282 " />
			<path d="M-4.483327192738581,16.032174425448417 L-4.570873901903877,16.08474871450445 L-4.658405239124542,16.14075213945412 L-4.745905835155035,16.200174866900415 L-4.83336032614753,16.26300646306594 L-4.920753356349581,16.329235895624898 L-5.008069580800376,16.398851535640222 L-5.095293668025086,16.47184115960549 L-5.18241030272686,16.548191951591118 L-5.2694041884759635,16.627890505494722 L-5.356260050395617,16.71092282739501 L-5.442962637844041,16.7972743380089 L-5.529496727092252,16.88692987525147 L-5.615847123997133,16.979873696898167 L-5.701998666669299,17.076089483348913 L-5.787936228135316,17.175560340493647 L-5.873644718993774,17.278268802678618 L-5.959109090064773,17.384196835773142 L-6.0443143350323405,17.493325840336137 L-6.129245493079324,17.60563665488189 L-6.213887651514302,17.721109559244578 L-6.298225948390028,17.83972427804082 L-6.382245575112985,17.961459984229734 L-6.549269866086375,18.214208314372485 L-6.714843221318273,18.479177041559687 L-6.878849356701654,18.756180075150205 L-7.041173088806342,19.04502287266852 L-7.201700415773701,19.345502576434207 L-7.360318597381465,19.65740815603128 L-7.516916234222517,19.98052055651729 L-7.671383345942001,20.31461285226819 L-7.823611448477816,20.659450406350874 L-7.9734936302502355,21.014791035311415 L-8.12092462724717,21.380385179263378 L-8.265800896952308,21.755976077156614 L-8.408020691064252,22.141299947103587 L-8.547484126955522,22.536086171636462 L-8.684093257821317,22.94005748776491 L-8.817752141468686,23.352930181701215 L-8.948366907697865,23.774414288115715 L-9.075845824228413,24.2042137937829 L-9.200099361123861,24.642026845474934 L-9.321040253669654,25.087545961956756 L-9.438583563660156,25.540458249933675 " />
			<path d="M-9.438583563660176,25.540458249933707 L9.438583563660176,26.883741634873346 " />
			<path d="M9.438583563660174,15.35835207813292 L9.438583563660174,26.883741634873346 " />
			<path d="M14.393839934581766,17.375457810388063 L14.393839934581766,12.479887681833695 " />
			<path d="M9.438583563660181,26.883741634873353 L9.556126873650694,26.430829346896395 L9.677067766196487,25.985310230414576 L9.801321303091935,25.547497178722544 L9.928800219622481,25.117697673055357 L10.05941498585166,24.696213566640857 L10.193073869499031,24.28334087270455 L10.329683000364827,23.879369556576094 L10.469146436256096,23.48458333204323 L10.611366230368038,23.09925946209626 L10.756242500073178,22.723668564203017 L10.903673497070113,22.35807442025105 L11.053555678842534,22.00273379129051 L11.20578378137835,21.657896237207822 L11.360250893097833,21.323803941456923 L11.516848529938883,21.00069154097092 L11.675466711546648,20.688785961373846 L11.835994038514007,20.38830625760815 L11.998317770618694,20.099463460089844 L12.162323906002072,19.82246042649933 L12.327897261233973,19.557491699312127 L12.494921552207364,19.304743369169373 L12.578941178930318,19.183007662980458 L12.663279475806046,19.06439294418422 L12.747921634241024,18.94892003982153 L12.832852792288005,18.83660922527578 L12.918058037255573,18.727480220712785 L13.003522408326573,18.62155218761826 L13.089230899185031,18.51884372543329 L13.175168460651047,18.419372868288555 L13.261320003323213,18.323157081837802 L13.347670400228093,18.230213260191114 L13.434204489476304,18.14055772294854 L13.520907076924727,18.054206212334652 L13.607762938844381,17.97117389043437 L13.694756824593485,17.891475336530757 L13.78187345929526,17.81512454454513 L13.86909754651997,17.742134920579865 L13.956413770970766,17.672519280564536 L14.043806801172817,17.606289848005577 L14.131261292165313,17.543458251840054 L14.218761888195807,17.484035524393757 L14.30629322541647,17.428032099444092 L14.393839934581738,17.37545781038807 " />

       </g><g stroke="#93c5fd" fill="none" stroke-width="0.42">
			<path d="M-9.438583563660176,25.540458249933707 L9.438583563660176,26.883741634873346 " />
			<path d="M-4.483327192738581,16.032174425448417 L-4.570873901903877,16.08474871450445 L-4.658405239124542,16.14075213945412 L-4.745905835155035,16.200174866900415 L-4.83336032614753,16.26300646306594 L-4.920753356349581,16.329235895624898 L-5.008069580800376,16.398851535640222 L-5.095293668025086,16.47184115960549 L-5.18241030272686,16.548191951591118 L-5.2694041884759635,16.627890505494722 L-5.356260050395617,16.71092282739501 L-5.442962637844041,16.7972743380089 L-5.529496727092252,16.88692987525147 L-5.615847123997133,16.979873696898167 L-5.701998666669299,17.076089483348913 L-5.787936228135316,17.175560340493647 L-5.873644718993774,17.278268802678618 L-5.959109090064773,17.384196835773142 L-6.0443143350323405,17.493325840336137 L-6.129245493079324,17.60563665488189 L-6.213887651514302,17.721109559244578 L-6.298225948390028,17.83972427804082 L-6.382245575112985,17.961459984229734 L-6.549269866086375,18.214208314372485 L-6.714843221318273,18.479177041559687 L-6.878849356701654,18.756180075150205 L-7.041173088806342,19.04502287266852 L-7.201700415773701,19.345502576434207 L-7.360318597381465,19.65740815603128 L-7.516916234222517,19.98052055651729 L-7.671383345942001,20.31461285226819 L-7.823611448477816,20.659450406350874 L-7.9734936302502355,21.014791035311415 L-8.12092462724717,21.380385179263378 L-8.265800896952308,21.755976077156614 L-8.408020691064252,22.141299947103587 L-8.547484126955522,22.536086171636462 L-8.684093257821317,22.94005748776491 L-8.817752141468686,23.352930181701215 L-8.948366907697865,23.774414288115715 L-9.075845824228413,24.2042137937829 L-9.200099361123861,24.642026845474934 L-9.321040253669654,25.087545961956756 L-9.438583563660156,25.540458249933675 " />
			<path d="M-13.92191075639876,15.360532732978601 L-4.483327192738583,16.03217442544842 " />
			<path d="M-13.921910756398756,15.360532732978598 L-14.00298891409385,15.409104824077694 L-14.084054861716627,15.460618619814692 L-14.165096391033554,15.515066362401427 L-14.246101297488414,15.572439852208142 L-14.327057382040252,15.63273044899831 L-14.407952453000513,15.69592907322982 L-14.48877432786907,15.762026207422323 L-14.569510835168849,15.831011897590543 L-14.650149816278827,15.902875754743274 L-14.730679127265061,15.977606956447978 L-14.811086640709526,16.05519424846056 L-14.89136024753646,16.135625946420227 L-14.971487858835944,16.218889937609124 L-15.051457407684449,16.304973682776435 L-15.210874171166173,16.485548156772534 L-15.36951451128429,16.677240597097516 L-15.527282869029852,16.87993553539316 L-15.684084210643496,17.093510875807898 L-15.839824084860211,17.317837968542747 L-15.99440867980326,17.55278168734519 L-16.14774487949294,17.798200510904117 L-16.299740319936166,18.053946608097036 L-16.450303444763094,18.31986592703794 L-16.59934356037724,18.595798287872473 L-16.746770890585932,18.88157747926424 L-16.89249663067811,19.177031358514327 L-17.036433000916986,19.481981955253595 L-17.17849329941525,19.79624557864542 L-17.318591954361068,20.11963292803412 L-17.456644575563324,20.45194920697268 L-17.592568005285127,20.792994240560766 L-17.726280368334912,21.142562596022636 L-17.857701121385013,21.50044370645216 L-17.986751101487922,21.866421997650452 L-18.113352573761127,22.240277017979714 L-18.23742927821165,22.621783571155035 L-18.358906475672267,23.01071185189422 L-18.47771099282155,23.406827584343937 L-18.593771266260756,23.80989216319866 L-18.707017385620937,24.219662797427652 L-18.817381135674335,24.63589265652317 L-18.924796037424684,25.058331019181924 L-19.02919738815168,25.48672342433023 L-19.130522300385447,25.92081182440186 L-19.22870973978765,26.360334740776217 L-19.323700561916255,26.805027421283302 L-19.415437547851948,27.25462199968051 L-19.50386543866467,27.708847657005233 L-19.588930968699515,28.167430784706085 L-19.67058289766201,28.630095149454473 L-19.748772041483306,29.096562059537206 L-19.823451301946843,29.566550532729977 L-19.894575695058556,30.039777465550532 L-19.96210237814355,30.515957803789636 L-20.02599067565291,30.994804714217054 L-20.086202103665165,31.476029757359193 L-20.14270039306753,31.959343061244226 L-20.195451511403068,32.44445349601015 L-20.24442368337059,32.93106884927049 L-20.28958740996489,33.418896002132165 L-20.33091548624585,33.90764110575934 L-20.36838301772567,34.39700975837693 L-20.401967435364394,34.88670718260729 L-20.431648509164635,35.37643840303301 L-20.45740836035738,35.86590842387914 L-20.479231472171495,36.3548224067076 L-20.497104699180447,36.84288584801678 L-20.511017275220603,37.32980475663952 L-20.520960819876382,37.81528583083233 L-20.5269293435283,38.29903663494944 L-20.528919250960882,38.780765775594986 " />
			<path d="M-20.528919250960882,38.780765775595036 L17.22541500367982,41.467332545474314 " />
			<path d="M17.225415003679814,41.46733254547431 L17.227404911112398,40.985603404828716 L17.233373434764314,40.501852600711615 L17.243316979420094,40.016371526518796 L17.25722955546025,39.529452617896055 L17.2751027824692,39.041389176586875 L17.296925894283316,38.552475193758426 L17.32268574547606,38.06300517291229 L17.352366819276302,37.573273952486566 L17.385951236915027,37.083576528256216 L17.423418768394846,36.59420787563862 L17.464746844675805,36.10546277201145 L17.509910571270105,35.617635619149766 L17.55888274323763,35.131020265889426 L17.611633861573168,34.64590983112351 L17.66813215097553,34.16259652723847 L17.728343578987786,33.68137148409633 L17.792231876497148,33.20252457366892 L17.85975855958214,32.72634423542981 L17.930882952693853,32.253117302609255 L18.00556221315739,31.783128829416487 L18.083751356978688,31.316661919333754 L18.16540328594118,30.853997554585362 L18.250468815976028,30.39541442688451 L18.33889670678875,29.941188769559787 L18.43063369272444,29.491594191162584 L18.525624514853046,29.046901510655495 L18.623811954255245,28.60737859428114 L18.725136866489017,28.17329019420951 L18.829538217216008,27.744897789061206 L18.936953118966358,27.322459426402453 L19.04731686901976,26.906229567306944 L19.16056298837994,26.49645893307794 L19.276623261819147,26.093394354223207 L19.39542777896843,25.6972786217735 L19.516904976429046,25.30835034103431 L19.640981680879573,24.926843787858992 L19.76758315315277,24.552988767529733 L19.896633133255683,24.187010476331437 L20.028053886305784,23.829129365901913 L20.16176624935557,23.479561010440044 L20.29768967907737,23.138515976851966 L20.435742300279625,22.806199697913407 L20.57584095522544,22.4828123485247 L20.717901253723706,22.16854872513288 L20.861837623962586,21.863598128393605 L21.007563364054764,21.56814424914352 L21.154990694263457,21.28236505775175 L21.304030809877602,21.006432696917223 L21.454593934704526,20.740513377976313 L21.606589375147752,20.4847672807834 L21.759925574837432,20.239348457224473 L21.914510169780485,20.004404738422025 L22.070250043997202,19.78007764568717 L22.227051385610846,19.566502305272437 L22.38481974335641,19.36380736697679 L22.54346008347452,19.172114926651812 L22.702876846956247,18.991540452655713 L22.78284639580475,18.9054567074884 L22.862974007104235,18.822192716299508 L22.94324761393117,18.741761018339837 L23.023655127375633,18.66417372632726 L23.10418443836187,18.58944252462255 L23.184823419471847,18.51757866746982 L23.265559926771626,18.4485929773016 L23.34638180164018,18.382495843109098 L23.427276872600444,18.319297218877587 L23.50823295715228,18.259006622087423 L23.58923786360714,18.201633132280705 L23.670279392924066,18.14718538969397 L23.751345340546845,18.095671593956972 L23.832423498241912,18.04709950285789 " />
			<path d="M14.393839934581768,17.37545781038806 L23.832423498241944,18.04709950285788 " />
			<path d="M9.438583563660181,26.883741634873353 L9.556126873650694,26.430829346896395 L9.677067766196487,25.985310230414576 L9.801321303091935,25.547497178722544 L9.928800219622481,25.117697673055357 L10.05941498585166,24.696213566640857 L10.193073869499031,24.28334087270455 L10.329683000364827,23.879369556576094 L10.469146436256096,23.48458333204323 L10.611366230368038,23.09925946209626 L10.756242500073178,22.723668564203017 L10.903673497070113,22.35807442025105 L11.053555678842534,22.00273379129051 L11.20578378137835,21.657896237207822 L11.360250893097833,21.323803941456923 L11.516848529938883,21.00069154097092 L11.675466711546648,20.688785961373846 L11.835994038514007,20.38830625760815 L11.998317770618694,20.099463460089844 L12.162323906002072,19.82246042649933 L12.327897261233973,19.557491699312127 L12.494921552207364,19.304743369169373 L12.578941178930318,19.183007662980458 L12.663279475806046,19.06439294418422 L12.747921634241024,18.94892003982153 L12.832852792288005,18.83660922527578 L12.918058037255573,18.727480220712785 L13.003522408326573,18.62155218761826 L13.089230899185031,18.51884372543329 L13.175168460651047,18.419372868288555 L13.261320003323213,18.323157081837802 L13.347670400228093,18.230213260191114 L13.434204489476304,18.14055772294854 L13.520907076924727,18.054206212334652 L13.607762938844381,17.97117389043437 L13.694756824593485,17.891475336530757 L13.78187345929526,17.81512454454513 L13.86909754651997,17.742134920579865 L13.956413770970766,17.672519280564536 L14.043806801172817,17.606289848005577 L14.131261292165313,17.543458251840054 L14.218761888195807,17.484035524393757 L14.30629322541647,17.428032099444092 L14.393839934581738,17.37545781038807 " />

       </g><g stroke="#fca5a5" fill="none" stroke-width="0.42">
			<path d="M-20.528919250960882,38.780765775595036 L17.22541500367982,41.467332545474314 " />
			<path d="M13.921910756398756,43.3863088096738 L17.225415003679817,41.467332545474314 " />
			<path d="M13.92191075639876,43.3863088096738 L-23.832423498241944,40.69974203979452 " />
			<path d="M-20.52891925096088,38.780765775595036 L-23.83242349824194,40.69974203979452 " />

       </g><g stroke="#86efac" fill="none" stroke-width="0.42">
			<path d="M32.79907788371912,5.5650311661785175 L-42.709590625562285,0.1918976264199359 " />
			<path d="M-42.709590625562285,0.19189762641993635 L-42.709590625562285,8.024809832106925 " />
			<path d="M-42.709590625562285,8.024809832106921 L-23.83242349824194,15.242777371311815 " />
			<path d="M-23.83242349824194,40.69974203979452 L-23.83242349824194,15.242777371311815 " />
			<path d="M13.92191075639876,43.3863088096738 L-23.832423498241944,40.69974203979452 " />
			<path d="M13.921910756398756,17.92934414119109 L13.921910756398756,43.3863088096738 " />
			<path d="M13.92191075639876,17.9293441411911 L32.79907788371911,13.397943371865484 " />
			<path d="M32.79907788371911,13.397943371865484 L32.79907788371911,5.565031166178494 " />

       </g><g stroke="#fdba74" fill="none" stroke-width="0.42">
			<path d="M-40.066787227737436,-1.3432833849396517 L-40.066787227737436,6.4896288207473365 " />
			<path d="M-42.709590625562285,8.024809832106925 L-40.066787227737436,6.4896288207473365 " />
			<path d="M-42.709590625562285,0.19189762641993635 L-42.709590625562285,8.024809832106925 " />
			<path d="M-40.066787227737436,-1.3432833849396517 L-42.709590625562285,0.1918976264199359 " />

       </g><g stroke="#c4b5fd" fill="none" stroke-width="0.42">
			<path d="M35.44188128154396,11.862762360505897 L35.44188128154396,4.029850154818906 " />
			<path d="M32.79907788371911,5.565031166178494 L35.44188128154396,4.029850154818906 " />
			<path d="M32.79907788371911,13.397943371865484 L32.79907788371911,5.565031166178494 " />
			<path d="M32.79907788371911,13.397943371865484 L35.44188128154396,11.862762360505895 " />

       </g>
  </g>
</svg>
